<svg width="254" height="59" viewBox="0 0 254 59" fill="none" xmlns="http://www.w3.org/2000/svg">
<path d="M105.198 8.91157H88.0921V50.0929H105.198C116.703 50.0929 126.03 40.8761 126.03 29.5066C126.03 18.1372 116.703 8.91157 105.198 8.91157ZM105.198 43.1957H95.7294V15.8176H105.198C112.853 15.8176 118.428 21.9504 118.428 29.5066C118.428 37.0629 112.853 43.1957 105.198 43.1957Z" fill="#110000"/>
<path d="M153.286 39.0311C151.81 41.7636 149.4 43.9602 145.889 43.9602C140.536 43.9602 138.847 40.4017 138.847 36.9926C138.847 33.5836 138.847 18.4184 138.847 18.4184H131.334C131.334 18.4184 131.334 32.8894 131.334 39.1101C131.334 45.3308 135.308 50.7432 143.15 50.7432C148.102 50.7432 151.472 47.8701 153.286 45.7614V50.1018H160.799V18.4184H153.286V39.0311V39.0311Z" fill="#110000"/>
<path d="M170.74 16.3522V18.4082H165.183V24.5235H170.74V50.0828H178.253V24.5322H188.095V18.417H178.253V17.0551C178.253 10.975 185.49 12.9695 188.095 13.936V7.62742C188.095 7.62742 184.476 6.80151 181.32 6.80151C178.173 6.79272 170.74 7.09145 170.74 16.3522Z" fill="#110000"/>
<path d="M192.076 16.3522V50.0916H199.589V24.5322H209.431V18.417H199.589V17.0551C199.589 10.975 206.826 12.9695 209.431 13.936V7.62742C209.431 7.62742 205.813 6.80151 202.656 6.80151C199.5 6.79272 192.076 7.09145 192.076 16.3522Z" fill="#110000"/>
<path d="M253.346 7.46395H245.833V50.0951H253.346V7.46395Z" fill="#110000"/>
<path d="M226.862 44.7609C221.901 44.7609 218.585 41.5803 217.625 37.0905H240.234C240.234 37.0905 240.412 35.9658 240.412 34.5864C240.412 24.8599 235.442 17.7606 225.395 17.7606C216.149 17.7606 210.183 25.3256 210.183 34.2789C210.183 43.2321 215.384 50.7971 226.445 50.7971C234.989 50.7971 240.457 45.499 240.457 45.499L236.811 40.6841C236.82 40.6841 232.579 44.7609 226.862 44.7609ZM225.395 23.7089C230.677 23.7089 232.481 27.9615 233.184 31.1509H217.616C218.452 26.8017 221.092 23.7089 225.395 23.7089Z" fill="#110000"/>
<path d="M35.866 0V59C52.3497 59 65.7127 45.7942 65.7127 29.5044C65.7127 13.2146 52.3497 0 35.866 0Z" fill="#EE4159"/>
<path d="M14.1946 8.90906V50.0904C22.4365 50.0904 29.1225 40.8736 29.1225 29.5041C29.1225 18.1347 22.4365 8.90906 14.1946 8.90906Z" fill="#EE4159"/>
<path d="M0 14.7548V44.2504C4.12537 44.2504 7.45946 37.6431 7.45946 29.4982C7.45946 21.3533 4.12537 14.7548 0 14.7548Z" fill="#EE4159"/>
</svg>
