<svg width="280" height="49" viewBox="0 0 280 49" fill="none" xmlns="http://www.w3.org/2000/svg">
<g clip-path="url(#clip0_5:2)">
<path fill-rule="evenodd" clip-rule="evenodd" d="M57.052 36.4764L73.8631 16.2088H57.3256V14.4325H76.4213V16.072L59.6572 36.3396H76.3315V38.1159H57.05V36.4764H57.052ZM91.6338 38.5712C89.9596 38.5712 88.408 38.2445 86.9747 37.5912C85.5655 36.9548 84.299 36.041 83.2507 34.9043C81.0702 32.5253 79.8704 29.4094 79.8922 26.1823C79.8922 24.5123 80.1903 22.9422 80.7844 21.4681C81.3785 19.9961 82.1931 18.7058 83.2283 17.5971C84.2663 16.4867 85.5167 15.596 86.9053 14.9777C88.3505 14.334 89.9171 14.0082 91.499 14.0222C93.1732 14.0222 94.7249 14.3488 96.1561 15.0022C97.5873 15.6555 98.8225 16.5334 99.8576 17.642C100.904 18.7673 101.726 20.0818 102.279 21.5151C102.857 22.9851 103.147 24.5429 103.147 26.1823V26.754C103.157 26.8993 103.141 27.0451 103.1 27.1848H82.2687C82.4366 29.7508 83.5138 32.1729 85.3067 34.0162C86.1438 34.8676 87.1115 35.5352 88.2079 36.0211C89.3159 36.5095 90.5148 36.7579 91.7257 36.75C92.5448 36.7507 93.36 36.6359 94.1471 36.4091C94.9207 36.1885 95.6646 35.8745 96.3623 35.474C97.0377 35.0874 97.6532 34.6046 98.1896 34.0407C98.7225 33.4772 99.141 32.8627 99.4452 32.195L101.456 32.7422C101.121 33.5916 100.625 34.3756 99.972 35.0881C99.3166 35.8027 98.555 36.4152 97.6873 36.9317C96.8196 37.4483 95.8682 37.8505 94.8331 38.1383C93.7914 38.4278 92.715 38.5734 91.6338 38.5712V38.5712ZM100.954 25.3616C100.881 24.04 100.563 22.7434 100.017 21.5375C99.515 20.428 98.8187 19.4171 97.9609 18.5526C97.1283 17.721 96.1442 17.0564 95.0618 16.5947C93.9499 16.1207 92.7526 15.8802 91.544 15.8883C90.3354 15.8802 89.138 16.1207 88.0262 16.5947C85.8011 17.5417 84.037 19.3249 83.1139 21.56C82.6025 22.7678 82.3014 24.0543 82.2238 25.3636H100.954V25.3616ZM119.411 16.4803C117.277 16.5416 115.411 17.1725 113.812 18.3709C112.214 19.5714 111.095 21.219 110.456 23.3118V38.1159H108.171V14.4346H110.364V20.2635C111.187 18.5935 112.275 17.2337 113.631 16.1863C114.986 15.139 116.44 14.5408 117.994 14.3897C118.298 14.357 118.572 14.3427 118.815 14.3427H119.409V16.4824L119.411 16.4803ZM133.708 38.5712C132.034 38.5712 130.487 38.2445 129.072 37.5912C127.68 36.9575 126.43 36.0523 125.393 34.9288C124.346 33.7871 123.524 32.4578 122.971 31.0109C122.391 29.515 122.097 27.9235 122.104 26.3191C122.095 24.6977 122.398 23.0896 122.996 21.5825C123.588 20.0941 124.405 18.7895 125.44 17.6645C126.475 16.5407 127.725 15.6349 129.115 15.0001C130.556 14.3414 132.124 14.0069 133.708 14.0201C135.352 14.0201 136.873 14.3468 138.276 15.0001C139.676 15.6535 140.903 16.5416 141.953 17.6645C144.128 20.0199 145.328 23.113 145.311 26.3191C145.311 27.9586 145.013 29.5246 144.421 31.0109C143.854 32.4562 143.024 33.7844 141.975 34.9288C140.94 36.0526 139.69 36.9584 138.3 37.5932C136.883 38.2465 135.352 38.5732 133.706 38.5732L133.708 38.5712ZM124.388 26.411C124.388 27.8075 124.633 29.1203 125.119 30.3514C125.607 31.5805 126.269 32.6503 127.106 33.5609C127.943 34.4715 128.927 35.1943 130.054 35.7251C131.181 36.2559 132.381 36.5213 133.662 36.5213C134.942 36.5213 136.144 36.2559 137.271 35.7251C138.398 35.1935 139.407 34.4425 140.24 33.516C142.031 31.5321 143.01 28.9468 142.982 26.2742C142.991 24.9262 142.743 23.5888 142.251 22.3338C141.786 21.1407 141.104 20.0442 140.24 19.0998C139.404 18.1863 138.405 17.4371 137.294 16.8907C136.178 16.3437 134.951 16.0635 133.708 16.072C132.428 16.072 131.226 16.3435 130.099 16.8907C128.979 17.4322 127.977 18.1907 127.153 19.1223C126.316 20.0635 125.644 21.1639 125.142 22.4257C124.638 23.6937 124.382 25.0466 124.388 26.411V26.411ZM170.207 38.1159H167.923V24.9083C167.923 19.0488 165.959 16.119 162.03 16.119C161.057 16.119 160.105 16.3027 159.176 16.6661C158.247 17.0295 157.38 17.544 156.571 18.2137C155.765 18.8813 155.056 19.6633 154.448 20.5596C153.843 21.4466 153.381 22.4228 153.078 23.4526V38.1179H150.791V4.86734H153.078V20.0778C154.01 18.2731 155.405 16.7489 157.12 15.6616C158.772 14.589 160.7 14.0194 162.67 14.0222C163.98 14.0222 165.107 14.2651 166.051 14.751C166.994 15.237 167.78 15.9352 168.403 16.8458C169.027 17.7564 169.485 18.8568 169.775 20.1472C170.062 21.4375 170.207 22.8891 170.207 24.4959V38.1159V38.1159ZM187.202 38.5712C185.528 38.5712 183.972 38.2445 182.541 37.5912C181.133 36.9545 179.867 36.0408 178.819 34.9043C176.639 32.5253 175.439 29.4094 175.461 26.1823C175.461 24.5123 175.759 22.9422 176.353 21.4681C176.945 19.9961 177.762 18.7058 178.797 17.5971C179.834 16.4869 181.084 15.5962 182.472 14.9777C183.917 14.334 185.483 14.0082 187.065 14.0222C188.74 14.0222 190.291 14.3488 191.724 15.0022C193.154 15.6555 194.389 16.5334 195.424 17.642C196.47 18.7673 197.292 20.0818 197.845 21.5151C198.423 22.9851 198.713 24.5429 198.713 26.1823V26.754C198.724 26.8991 198.709 27.045 198.668 27.1848H177.835C178.003 29.7508 179.08 32.1729 180.873 34.0162C181.71 34.8676 182.678 35.5352 183.772 36.0211C184.88 36.5095 186.079 36.7579 187.29 36.75C188.109 36.7507 188.924 36.6359 189.711 36.4091C190.485 36.1885 191.229 35.8745 191.927 35.474C192.602 35.0874 193.218 34.6046 193.754 34.0407C194.287 33.4772 194.707 32.8627 195.012 32.195L197.021 32.7422C196.686 33.5916 196.192 34.3756 195.536 35.0881C194.883 35.8027 194.119 36.4152 193.252 36.9317C192.384 37.4483 191.435 37.8505 190.397 38.1383C189.356 38.4276 188.281 38.5732 187.2 38.5712H187.202ZM196.52 25.3616C196.447 24.04 196.129 22.7434 195.583 21.5375C195.082 20.4281 194.386 19.4172 193.529 18.5526C192.696 17.7208 191.711 17.0561 190.628 16.5947C189.516 16.1207 188.319 15.8802 187.11 15.8883C185.902 15.8802 184.704 16.1207 183.593 16.5947C181.368 17.5422 179.605 19.3252 178.682 21.56C178.17 22.7677 177.868 24.0542 177.79 25.3636H196.52V25.3616ZM203.738 38.1159V14.4346H206.024V38.1179H203.738V38.1159ZM203.738 9.05684V4.86734H206.024V9.05684H203.738V9.05684ZM222.786 38.4813C221.22 38.4986 219.672 38.1476 218.266 37.4564C216.916 36.789 215.713 35.8597 214.726 34.7226C213.727 33.5708 212.938 32.2531 212.394 30.8292C211.835 29.3915 211.548 27.862 211.549 26.3191C211.549 24.7103 211.817 23.1607 212.349 21.6743C212.855 20.2333 213.622 18.8976 214.612 17.7339C215.585 16.5947 216.749 15.6923 218.105 15.0226C219.461 14.355 220.961 14.0222 222.605 14.0222C224.677 14.0222 226.48 14.5612 228.019 15.6392C229.547 16.7073 230.87 18.0421 231.925 19.5796V14.4285H234.026V38.5691C234.026 40.18 233.719 41.5908 233.111 42.8056C232.531 43.9843 231.697 45.0193 230.667 45.8354C229.646 46.6398 228.46 47.2462 227.105 47.6566C225.749 48.0649 224.326 48.2711 222.833 48.2711C221.589 48.2844 220.348 48.1542 219.134 47.8832C218.12 47.6569 217.144 47.2892 216.233 46.7909C215.405 46.3277 214.651 45.7442 213.995 45.0596C213.339 44.3761 212.764 43.6199 212.28 42.8056L213.834 41.7582C214.779 43.367 216.059 44.5451 217.672 45.2883C219.285 46.0314 221.006 46.403 222.833 46.403C224.052 46.403 225.202 46.2376 226.284 45.9028C227.364 45.568 228.307 45.0759 229.116 44.4226C229.922 43.7693 230.561 42.9567 231.035 41.9848C231.504 41.015 231.741 39.8758 231.741 38.5691V33.3813C230.775 34.9217 229.44 36.1973 227.858 37.093C226.321 37.9975 224.572 38.4767 222.788 38.4813H222.786ZM223.338 36.5213C224.346 36.5208 225.345 36.3282 226.282 35.9538C227.241 35.574 228.109 35.0799 228.887 34.4715C229.663 33.8651 230.302 33.1812 230.806 32.4237C231.308 31.6642 231.621 30.9047 231.741 30.1452V22.3563C231.015 20.5469 229.786 18.9828 228.201 17.8483C227.427 17.3028 226.582 16.8659 225.69 16.5498C224.817 16.2356 223.897 16.074 222.97 16.072C221.541 16.072 220.261 16.3742 219.132 16.9826C218.029 17.5699 217.058 18.3758 216.278 19.3509C215.493 20.3374 214.891 21.4552 214.497 22.6523C214.092 23.8479 213.884 25.1016 213.881 26.364C213.881 27.732 214.124 29.0223 214.612 30.2371C215.097 31.4519 215.767 32.5299 216.621 33.4711C217.474 34.4103 218.478 35.1555 219.636 35.7026C220.793 36.2486 222.057 36.5283 223.336 36.5213H223.338ZM260.567 38.1159H258.283V24.9083C258.283 19.0488 256.319 16.119 252.391 16.119C251.415 16.119 250.463 16.3027 249.534 16.6661C248.605 17.0295 247.738 17.544 246.931 18.2137C246.125 18.8813 245.416 19.6633 244.808 20.5596C244.202 21.4465 243.739 22.4226 243.436 23.4526V38.1179H241.151V4.86734H243.438V20.0778C244.37 18.2731 245.765 16.7489 247.48 15.6616C249.132 14.589 251.06 14.0194 253.03 14.0222C254.338 14.0222 255.465 14.2651 256.411 14.751C257.354 15.237 258.138 15.9352 258.763 16.8458C259.387 17.7564 259.845 18.8568 260.133 20.1472C260.422 21.4375 260.567 22.8891 260.567 24.4959V38.1159V38.1159ZM278.065 36.9766C277.942 37.0379 277.736 37.1522 277.446 37.3196C277.158 37.487 276.793 37.6463 276.35 37.7974C275.863 37.9612 275.367 38.0975 274.865 38.2057C274.318 38.3282 273.722 38.3895 273.085 38.3895C272.444 38.3895 271.844 38.2976 271.28 38.1159C270.736 37.9445 270.231 37.6661 269.796 37.2972C269.37 36.9339 269.026 36.4835 268.789 35.9762C268.534 35.4031 268.409 34.7803 268.424 34.153V16.2986H265.09V14.4305H268.424V6.32509H270.708V14.4305H276.235V16.2986H270.708V33.6079C270.708 34.4858 271.015 35.1473 271.623 35.5883C272.231 36.0293 272.915 36.2498 273.677 36.2498C274.622 36.2498 275.437 36.0885 276.121 35.77C276.807 35.4515 277.225 35.2473 277.379 35.1575L278.062 36.9766H278.065Z" fill="black"/>
<path d="M3.60121 0L6.9128 7.056H0.291672L3.60121 0ZM0.291672 8.17075H6.9128V39.741H0.291672V8.17075ZM0.291672 40.8558H6.9128V44.6941H0.291672V40.8558ZM12.0721 7.03762L16.6577 2.45612L37.7358 23.5506L16.5515 45.2433L11.9741 40.8946L28.6137 23.5812L12.0721 7.03967V7.03762Z" fill="#EC407A"/>
</g>
<defs>
<clipPath id="clip0_5:2">
<rect width="279.708" height="49" fill="white" transform="translate(0.291672)"/>
</clipPath>
</defs>
</svg>
