<?xml version="1.0" encoding="UTF-8" standalone="no"?>
<svg width="458px" height="320px" viewBox="0 0 458 320" version="1.1" xmlns="http://www.w3.org/2000/svg" xmlns:xlink="http://www.w3.org/1999/xlink">
    <defs></defs>
    <g id="Page-1" stroke="none" stroke-width="1" fill="none" fill-rule="evenodd">
        <g id="Imported-Layers" fill="#FFFFFF">
            <path d="M106.093279,197.91015 L115.612828,197.91015 C116.568648,197.91015 117.411352,197.066701 117.522582,196.322094 L123.65623,156.274284 L123.974836,156.274284 L142.704754,197.802836 C143.022418,198.437305 143.552172,198.970109 144.503279,198.970109 L146.406434,198.970109 C147.357541,198.970109 147.990984,198.437305 148.200246,197.802836 L166.719959,156.274284 L167.037623,156.274284 L173.2825,196.322094 C173.491762,197.066701 174.341066,197.91015 175.295943,197.91015 L184.91918,197.91015 C186.300123,197.91015 187.142828,196.959387 186.822336,195.479587 L174.341066,124.474575 C174.235492,123.628302 173.598279,122.886519 172.435082,122.886519 L170.741189,122.886519 C169.790082,122.886519 169.260328,123.309185 168.943607,123.944595 L145.667418,173.817264 L145.349754,173.817264 L122.070738,123.944595 C121.752131,123.309185 121.118689,122.886519 120.272213,122.886519 L118.57832,122.886519 C117.411352,122.886519 116.779795,123.628302 116.669508,124.474575 L104.079836,195.479587 C103.866803,196.959387 104.717992,197.91015 106.093279,197.91015" id="Fill-1"></path>
            <path d="M313.236557,197.91015 L351.959508,197.91015 C353.130246,197.91015 353.971066,196.959387 353.971066,195.902252 L353.971066,187.238076 C353.971066,186.18 353.130246,185.23112 351.959508,185.23112 L324.982582,185.23112 L324.982582,125.952493 C324.982582,124.892534 324.031475,123.944595 322.969139,123.944595 L313.236557,123.944595 C312.073361,123.944595 311.226885,124.892534 311.226885,125.952493 L311.226885,195.902252 C311.226885,196.959387 312.073361,197.91015 313.236557,197.91015" id="Fill-2"></path>
            <path d="M236.942541,164.732305 L252.704139,181.424305 C251.121475,183.224164 246.99373,187.662625 239.05873,187.662625 C232.813852,187.662625 227.950861,183.544223 227.950861,177.726686 C227.950861,169.276196 235.253361,165.784733 236.942541,164.732305 M240.117295,132.817751 C245.618443,132.817751 249.111803,136.729056 249.111803,140.745792 C249.111803,147.295698 241.705615,150.886003 240.117295,151.836765 L237.789016,149.513516 C234.510574,146.242328 232.287869,143.702569 232.287869,140.003067 C232.287869,136.095528 235.253361,132.817751 240.117295,132.817751 M215.357418,179.102938 C215.357418,189.880443 224.242582,198.970109 237.685328,198.970109 C251.439139,198.970109 258.843443,192.203692 260.748484,189.984933 L268.368648,197.699287 C270.056885,199.390891 271.753607,199.177205 273.022377,198.017463 L277.359385,193.578062 C279.899754,191.153147 278.844959,189.984933 277.573361,188.720701 L268.1575,179.841897 L268.1575,179.838132 L259.80209,171.59568 L259.80209,171.600387 L259.638074,171.438475 L259.627705,171.429062 L247.627172,159.342141 C249.744303,157.438733 260.539221,150.996141 260.539221,140.111323 C260.539221,130.600874 252.391189,122.88746 240.53959,122.88746 C227.209016,122.88746 220.541844,131.969595 220.541844,140.003067 C220.541844,146.242328 223.507336,150.782455 227.736885,155.218091 L229.95959,157.654302 L229.95959,157.864223 C228.051721,159.023965 215.357418,165.153088 215.357418,179.102938" id="Fill-3"></path>
            <path d="M268.642008,169.342091 C271.802623,169.342091 274.362787,166.788211 274.362787,163.633751 C274.362787,160.481173 271.802623,157.925411 268.642008,157.925411 C265.488934,157.925411 262.930656,160.481173 262.930656,163.633751 C262.930656,166.788211 265.488934,169.342091 268.642008,169.342091" id="Fill-4"></path>
            <path d="M14.38245,14.3682837 L443.616608,14.3682837 L443.616608,305.635479 L14.38245,305.635479 L14.38245,14.3682837 Z M454.728565,0 L3.26766853,0 C1.46056308,0 0,1.45883791 0,3.26757119 L0,316.735251 C0,318.542103 1.46056308,320 3.26766853,320 L454.728565,320 C456.534728,320 458,318.542103 458,316.735251 L458,3.26757119 C458,1.45883791 456.534728,0 454.728565,0 L454.728565,0 Z" id="Fill-5"></path>
        </g>
    </g>
</svg>