<?xml version="1.0" encoding="UTF-8" standalone="no"?>
<svg width="120px" height="20px" viewBox="0 0 120 20" version="1.1" xmlns="http://www.w3.org/2000/svg" xmlns:xlink="http://www.w3.org/1999/xlink">
    <!-- Generator: Sketch 3.6.1 (26313) - http://www.bohemiancoding.com/sketch -->
    <title>Group 11</title>
    <desc>Created with Sketch.</desc>
    <defs></defs>
    <g id="Page-1" stroke="none" stroke-width="1" fill="none" fill-rule="evenodd">
        <g id="Group-11" fill="#F42B5A">
            <path d="M0.870862841,18.659837 L0.669894493,18.6144525 L0.178638532,18.1379158 L0.0669894493,17.6840714 L0,16.4586913 L0.133978899,14.189469 L0.982511924,9.24256444 L1.16115046,9.24256444 L1.11649082,9.12910333 L1.13882064,8.83410443 L1.25046972,8.87948887 L1.25046972,8.76602776 L1.18348027,8.72064331 L1.18348027,8.6071822 L1.3621188,8.53910553 L1.3621188,8.42564442 L1.20581009,8.49372108 L1.27279954,8.42564442 L1.29512935,8.13064552 L2.43394999,4.18219872 L2.38929036,3.97796872 L2.18832201,3.79643093 L2.05434311,3.34258647 L2.07667293,3.11566424 L2.21065183,3.0702798 L2.23298164,2.63912756 L2.65724816,2.43489755 L3.2601532,2.34412866 L3.48345137,1.70874642 L3.48345137,1.59528531 L3.7960688,1.30028641 L4.44363347,1.30028641 L5.71643301,2.00374532 L7.30184998,2.00374532 L8.30669172,2.29874422 L9.42318254,2.84335757 L9.98142795,3.59220093 L10.0037578,3.70566204 L10.0707472,3.75104649 L10.6289926,4.81758096 L10.6289926,5.04450319 L10.7853013,6.11103767 L10.7183119,7.20026438 L10.4503541,8.17602996 L10.4056945,8.08526107 L10.3163752,7.92641551 L10.2270559,8.0171844 L9.17755456,9.87794668 L9.06590548,9.9914078 L8.99891603,10.1048689 L8.70862841,10.3998678 L8.32902153,10.9217889 L7.97174447,11.2848645 L7.86009539,11.5117867 L7.83776557,11.738709 L7.45815869,12.0337079 L7.39116924,12.2606301 L7.14554126,12.4875523 L7.14554126,12.6917823 L6.87758347,12.8960123 L6.72127475,13.1229346 L6.60962567,13.1229346 L6.43098714,13.6448557 L6.27467842,13.781009 L6.27467842,13.5540868 L6.23001879,13.4860101 L5.98439081,13.7129324 L5.98439081,13.8263935 L6.09603989,13.8263935 L5.69410319,14.4390835 L5.18051742,14.9383124 L5.20284723,15.1198502 L5.40381558,14.9383124 L5.20284723,15.2333113 L5.04653852,15.2333113 L4.91255962,15.6417713 L4.64460182,15.8686935 L4.59994219,15.7552324 L4.42130366,15.9367702 L4.57761237,15.5736946 L4.30965457,15.9821547 L4.15334586,15.9367702 L3.93004769,16.1863847 L3.99703714,16.2317691 L3.75140916,16.526768 L3.68441971,16.4359991 L3.57277063,16.6175369 L3.63976008,16.6856136 L3.528111,16.8217669 L3.43879173,16.8217669 L3.10384449,17.2529191 L3.32714265,16.5721525 L3.21549357,16.526768 L3.21549357,16.6175369 L3.08151467,16.7990747 L2.96986559,16.5721525 L2.88054632,16.5721525 L2.79122706,16.9806125 L2.70190779,16.9806125 L2.70190779,17.1621503 L2.56792889,17.1621503 L2.43394999,17.4117647 L2.27764128,17.5706103 L2.36696054,17.2075347 L2.23298164,17.2075347 L2.1659922,17.4571492 L1.98735366,17.8883014 L1.83104495,17.6840714 L1.80871513,17.5252258 L1.74172568,17.6386869 L1.67473623,17.9790703 L1.54075733,18.1152236 L1.65240642,18.5009914 L1.51842752,18.4329147 L1.27279954,18.864067 L0.982511924,18.7279136 L0.870862841,18.659837 Z M4.85610784,10.619226 L7.6071914,6.59513843 L8.01176251,5.61559081 L8.03873392,5.11257986 L6.25862103,5.16552838 L5.34159317,5.24495116 L5.01793628,5.85385915 L3.23782338,12.5783212 L4.85610784,10.619226 Z M3.99703714,15.5283102 L4.24266513,15.1198502 L4.10868623,15.1198502 L3.84072843,15.2786957 L3.95237751,15.3694646 L3.99703714,15.5283102 Z M4.59994219,15.5283102 L4.77858072,15.4602335 L4.80091054,15.2786957 L4.59994219,15.3921569 L4.59994219,15.5283102 Z M13.7638387,17.7294558 L13.8308282,17.8429169 L13.60753,17.9563781 L13.7191791,18.0244547 L13.3842318,18.0244547 L13.4512213,17.9790703 L13.1386038,17.8656092 L13.0269548,18.1152236 L12.8929759,18.1152236 L12.8929759,17.9109936 L12.6920075,17.9109936 L12.513369,18.1152236 L11.9104639,18.4102225 L11.3968782,18.0017625 L11.1065905,17.5933025 L11.1065905,17.4117647 L10.8386328,16.8444591 L10.9056222,16.7536902 L10.7939731,16.4133069 L11.1065905,13.8717779 L11.3298887,12.7144746 L11.3298887,12.4875523 L11.8211447,10.0141 L13.3842318,4.52258207 L13.5628704,4.06873761 L13.5628704,3.8645076 L13.3395722,3.75104649 L12.9599653,3.3652787 L12.7813268,2.97951091 L12.7813268,2.79797312 L13.0269548,2.66181978 L13.3842318,2.66181978 L14.098786,2.54835867 L14.210435,2.480282 L14.3444139,2.480282 L14.8356699,1.75413087 L15.192947,1.86759198 L15.4609048,2.02643754 L18.0065038,1.27759418 L18.2521318,1.27759418 L18.4977598,1.16413307 L18.5647492,1.20951751 L18.9890158,1.20951751 L19.2793034,1.36836308 L19.4802717,1.16413307 L19.9938575,1.16413307 L20.1278364,1.0960564 L20.3511346,1.0960564 L20.9986992,0.891826393 L20.8647203,0.846441948 L21.4229657,0.755673056 L21.4229657,0.959903062 L21.5569446,0.891826393 L21.6016043,0.959903062 L21.9812112,0.959903062 L22.0482006,1.02797973 L22.4278075,1.02797973 L22.2938286,1.20951751 L22.8297442,0.937210839 L23.0083827,1.11874862 L23.097702,1.02797973 L23.097702,0.891826393 L23.34333,0.891826393 L23.7675965,1.05067195 L24.1472034,1.59528531 L24.1695332,2.09451421 L24.0355543,2.23066755 L24.1025437,2.27605199 L24.1025437,2.480282 L24.0355543,2.54835867 L23.946235,2.38951311 L23.7452667,2.82066534 L23.6112878,2.66181978 L23.454979,2.66181978 L23.454979,2.86604979 L23.7452667,3.13835647 L23.6559474,3.25181758 L23.6559474,3.50143203 L23.454979,3.63758537 L23.4103194,3.75104649 L23.6112878,3.63758537 L23.454979,3.8645076 L23.6112878,3.93258427 L23.5219685,3.93258427 L23.4103194,4.00066094 L22.9637231,4.06873761 L22.7850845,4.13681428 L22.6511057,4.06873761 L22.1598497,4.20489095 L21.6685937,4.25027539 L20.6190924,4.43181317 L20.3511346,4.43181317 L19.6142506,4.70411985 L19.3686226,4.70411985 L18.4084405,4.90834986 L18.1181529,5.20334876 L17.9171846,5.31680987 L17.5599075,5.70257766 L17.381269,6.1337299 L17.3142795,6.20180657 L17.0463217,6.79180436 L17.0463217,7.10949548 L18.7433878,6.72372769 L19.9491979,6.6329588 L21.7132534,6.88257325 L21.4229657,7.08680326 L21.3559763,7.17757215 L20.0385171,7.60872439 L19.2569736,8.10795329 L19.1229947,8.49372108 L18.832707,8.9021811 L18.5870791,9.58294779 L18.0958231,10.0821767 L17.381269,10.3998678 L16.8676832,10.5133289 L16.7560341,10.6494823 L16.6890447,10.5587134 L16.0191502,10.6721745 L15.4385749,12.9187046 L15.5725538,12.9187046 L18.7433878,11.3983256 L19.5472612,11.3983256 L19.9938575,11.534479 L20.8647203,12.0790923 L20.8647203,12.7144746 L20.9986992,12.6690901 L20.9986992,12.8733201 L21.1103483,12.9187046 L20.9986992,12.9867812 L20.8647203,13.372549 L21.1103483,13.1002423 L21.2219974,13.1002423 L21.0433589,13.2137035 L21.1103483,13.372549 L21.1103483,13.5540868 L20.9986992,13.6675479 L20.90938,13.5994712 L20.8200607,13.8037013 L20.9986992,13.8037013 L20.9986992,13.9171624 L20.90938,13.8717779 L20.6190924,14.189469 L20.4851135,14.189469 L20.5521029,13.985239 L20.3511346,14.3029302 L20.172496,14.3029302 L19.9938575,14.4390835 L19.8598786,14.4844679 L19.7482295,14.4390835 L19.569591,14.7567746 L19.4802717,14.688698 L18.9890158,14.8021591 L18.9443561,14.9383124 L18.7880474,14.9836968 L18.7433878,15.1425424 L18.4307703,15.3694646 L18.3637809,15.3240802 L18.2521318,15.4375413 L18.1181529,15.3694646 L18.1181529,15.2560035 L18.0734933,15.1879269 L17.8948547,15.5283102 L18.0734933,15.5283102 L17.9171846,15.6417713 L17.626897,15.6417713 L17.4929181,15.7552324 L17.5599075,15.8233091 L17.381269,16.0275391 L17.135641,16.0729236 L16.8676832,16.322538 L16.6220552,16.4133069 L16.4434167,16.5721525 L16.4434167,16.4586913 L16.2647781,16.6402291 L16.3764272,16.6402291 L15.8851713,16.9579202 L15.8851713,16.8444591 L15.6395433,17.139458 L15.3939153,17.139458 L15.4832346,17.2529191 L15.304596,17.5252258 L15.304596,17.3890725 L15.0143084,17.4571492 L14.8803295,17.5933025 L14.6347015,17.5933025 L14.1434456,17.8429169 L14.210435,17.7294558 L14.0317965,17.5933025 L13.8308282,17.5933025 L13.7638387,17.7294558 Z M21.4229657,3.11566424 L21.4899552,3.04758757 L21.4229657,2.86604979 L21.2889868,2.75258868 L21.2889868,2.66181978 L21.1773378,2.57105089 L21.0880185,2.86604979 L21.2219974,2.86604979 L21.2219974,2.97951091 L21.3559763,2.93412646 L21.4229657,3.11566424 Z M20.4851135,3.18374091 L20.6860818,2.97951091 L20.5521029,2.79797312 L20.6860818,2.66181978 L20.5521029,2.54835867 L20.5521029,2.66181978 L20.4851135,2.79797312 L20.4851135,3.18374091 Z M18.721058,2.95681868 L18.7880474,2.79797312 L18.9443561,2.75258868 L18.9443561,2.66181978 L18.7433878,2.66181978 L18.6763983,2.79797312 L18.5647492,2.79797312 L18.4977598,2.86604979 L18.721058,2.95681868 Z M19.926868,3.18374091 L19.9938575,2.97951091 L20.172496,2.97951091 L20.172496,2.86604979 L20.0385171,2.79797312 L19.8598786,2.93412646 L19.926868,3.18374091 Z M20.9986992,2.86604979 L20.9986992,2.61643534 L20.8647203,2.75258868 L20.7977309,2.66181978 L20.7084116,2.86604979 L20.9986992,2.86604979 Z M21.9142217,1.48182419 L22.0928602,1.48182419 L22.0482006,1.32297863 L21.7802428,1.3910553 L21.9142217,1.48182419 Z M23.2316809,3.31989425 L23.34333,3.04758757 L23.1200318,3.04758757 L23.2316809,3.31989425 Z M24.1025437,2.93412646 L24.1025437,3.11566424 L23.9015754,3.11566424 L23.9015754,3.02489535 L24.1025437,2.93412646 Z M21.7132534,2.86604979 L21.9142217,2.86604979 L21.9142217,2.75258868 L21.7132534,2.75258868 L21.7132534,2.86604979 Z M21.7355832,3.20643314 L21.8695621,2.97951091 L21.6239341,3.0702798 L21.7355832,3.20643314 Z M22.5394566,3.11566424 L22.5841162,2.97951091 L22.5394566,2.86604979 L22.4278075,3.04758757 L22.5394566,3.11566424 Z M21.5569446,2.86604979 L21.6685937,2.61643534 L21.5569446,2.61643534 L21.5569446,2.86604979 Z M23.9685648,3.31989425 L23.9685648,3.43335536 L23.9015754,3.54681648 L23.8345859,3.50143203 L23.9685648,3.31989425 Z M20.9986992,1.59528531 L21.1103483,1.59528531 L21.1773378,1.3910553 L20.9986992,1.59528531 Z M21.2889868,12.4875523 L21.1773378,12.6690901 L21.1773378,12.4875523 L21.2889868,12.4875523 Z M24.3258419,2.61643534 L24.3258419,2.86604979 L24.2588524,2.68451201 L24.3258419,2.61643534 Z M14.0094667,17.9109936 L13.853158,17.8202247 L13.9201474,17.7521481 L14.0094667,17.9109936 Z M19.5472612,3.18374091 L19.6589102,3.04758757 L19.5472612,3.04758757 L19.5472612,3.18374091 Z M17.0463217,2.75258868 L17.2026304,2.75258868 L17.0463217,2.66181978 L17.0463217,2.75258868 Z M21.5569446,2.16259088 L21.6685937,2.09451421 L21.5569446,2.04912976 L21.5569446,2.16259088 Z M20.2394855,2.61643534 L20.2394855,2.43489755 L20.172496,2.54835867 L20.2394855,2.61643534 Z M21.2219974,2.09451421 L21.3559763,2.09451421 L21.4229657,2.04912976 L21.2889868,2.04912976 L21.2219974,2.09451421 Z M17.9171846,3.04758757 L17.9171846,2.79797312 L17.8725249,2.97951091 L17.9171846,3.04758757 Z M24.1695332,3.75104649 L23.9685648,3.93258427 L24.0355543,3.81912315 L24.1695332,3.75104649 Z M22.1598497,2.93412646 L22.2268391,2.86604979 L22.0928602,2.86604979 L22.1598497,2.93412646 Z M21.0433589,12.2152456 L21.0433589,12.1017845 L21.1103483,12.0337079 L21.0433589,12.2152456 Z M19.4356121,2.36682089 L19.4802717,2.43489755 L19.4802717,2.27605199 L19.4356121,2.36682089 Z M24.191863,19.5902181 L24.1025437,19.4994492 L24.1025437,19.068297 L24.0355543,19.1363737 L23.946235,19.4313725 L23.946235,18.7959903 L24.0355543,18.7279136 L24.2588524,18.0244547 L24.1695332,17.9336858 L24.0578841,18.0471469 L23.946235,17.9336858 L23.5442983,19.0456048 L23.1423616,19.1817581 L23.0530423,19.068297 L23.0530423,18.6371447 L22.9637231,18.6371447 L22.8967336,18.7959903 L22.7850845,18.7959903 L22.5617864,19.2044503 L22.1375199,19.3632959 L22.0705304,19.2952192 L21.7132534,19.1363737 L21.5792745,19.1363737 L21.6685937,19.0456048 L21.5792745,18.9321436 L21.3559763,18.9321436 L21.3559763,18.6371447 L21.6462639,18.5009914 L21.512285,18.3648381 L21.3559763,18.2967614 L21.2219974,18.1379158 L21.0210291,18.1379158 L21.0210291,18.0017625 L21.1550079,17.8656092 L21.3559763,17.2302269 L21.4229657,17.3663803 L21.512285,17.2983036 L21.512285,17.139458 L21.7802428,16.8671514 L22.003541,16.7990747 L22.8967336,16.2998458 L25.77728,14.0760079 L26.9607602,12.9413968 L27.8092933,11.8521701 L27.8092933,11.6706323 L27.0500795,11.6706323 L26.8267813,11.6025556 L26.5588235,11.6025556 L26.4695043,11.4437101 L26.2015465,11.4437101 L25.9782483,11.2394801 L25.9112589,11.4210178 L25.7102905,11.1714034 L25.5763116,11.1033267 L25.4869923,10.83102 L25.0180662,11.2167878 L24.9064171,10.6948667 L24.6161295,10.9898656 L24.5268102,10.8764045 L24.3705015,10.8764045 L24.2588524,10.62679 L23.946235,10.5133289 L23.7452667,10.5133289 L23.2093511,9.9914078 L23.0530423,9.44679445 L22.8744038,8.15333774 L23.0307125,7.20026438 L23.3879896,6.45142102 L23.5442983,6.24719101 L23.9239052,5.47565543 L25.0180662,4.11412205 L26.0675676,3.04758757 L27.6083249,1.9810531 L28.7248157,1.41374752 L29.1490822,1.32297863 L29.4840295,1.61797753 L30.1315942,1.91297643 L30.7791588,2.43489755 L31.1141061,2.93412646 L31.1141061,3.31989425 L30.4442116,4.29565984 L30.2655731,4.38642873 L30.1985836,4.54527429 L29.3500506,5.47565543 L28.1889001,6.90526548 L27.8762827,7.54064772 L27.5413355,7.88103106 L27.2510478,8.38025997 L27.1840584,8.6071822 L27.3850267,8.67525887 L27.8762827,8.67525887 L28.3005492,8.81141221 L29.2830611,9.31064111 L30.1985836,9.94602335 L30.756829,10.5133289 L31.0471166,10.9444812 L31.1810955,10.9444812 L31.1810955,11.2394801 L31.3150744,11.5117867 L31.4490533,11.6706323 L31.4490533,11.8748623 L31.605362,11.8067856 L31.493713,12.555629 L31.605362,12.6690901 L31.5383726,12.9413968 L31.4490533,13.0094735 L31.5383726,13.0094735 L31.6723515,12.9413968 L31.6723515,13.2363957 L31.605362,13.372549 L31.605362,14.0079313 L31.3597341,14.2575457 L31.4490533,14.3710068 L31.248085,14.4844679 L31.248085,14.8702357 L30.8238185,14.8702357 L30.5558607,15.505618 L30.4665414,15.3694646 L30.1985836,15.5736946 L30.2879029,15.5736946 L30.1315942,15.9367702 L29.908296,16.0048469 L29.4840295,16.4359991 L29.4840295,16.5721525 L29.3500506,16.6402291 L29.0820928,17.0713814 L28.9257841,16.935228 L28.7248157,17.0033047 L28.6578263,17.2302269 L28.5238474,17.2983036 L28.2335598,17.7294558 L27.9432721,17.8656092 L27.8092933,17.8656092 L27.6083249,18.2967614 L27.3180373,18.3648381 L27.3850267,18.2286847 L27.228718,18.2286847 L26.7597919,18.864067 L26.7597919,19.2044503 L26.625813,19.3632959 L26.5588235,19.068297 L26.4025148,19.3632959 L26.3355254,19.2952192 L26.134557,19.4313725 L25.9782483,19.8625248 L25.9782483,19.5675259 L25.9112589,19.4994492 L25.77728,19.7036792 L25.7102905,19.5675259 L25.8219396,19.3632959 L25.7102905,19.3632959 L25.5763116,19.5675259 L25.5093222,19.7944481 L25.4200029,19.4994492 L25.6433011,19.2952192 L25.286024,19.2952192 L25.0180662,19.7036792 L24.8617575,19.7036792 L24.794768,19.9306015 L24.6161295,19.6356026 L24.8617575,19.2952192 L24.9734066,19.2952192 L25.1520451,18.9321436 L25.3530134,18.9321436 L25.531652,18.659837 L25.3530134,18.5690681 L25.1520451,18.5690681 L25.0850556,18.5009914 L24.9287469,18.8867592 L25.0180662,19.068297 L24.8617575,19.068297 L24.6607891,19.2044503 L24.437491,19.6356026 L24.437491,19.8625248 L24.3035121,19.7944481 L24.1025437,19.8625248 L24.191863,19.5902181 Z M26.9607602,16.3679224 L27.1170689,16.2998458 L27.2510478,16.0729236 L27.0724093,15.9821547 L26.9607602,16.3679224 Z M29.1490822,16.2998458 L29.0820928,16.2317691 L29.2830611,16.1410002 L28.9257841,16.0729236 L28.9257841,16.2544613 L29.1490822,16.2998458 Z M26.6928024,16.4359991 L26.8267813,16.3679224 L26.8937708,16.1410002 L26.6928024,16.1410002 L26.6928024,16.4359991 Z M25.9112589,17.139458 L26.134557,17.0033047 L26.134557,16.8898436 L25.8442694,17.0713814 L25.9112589,17.139458 Z M24.1695332,18.864067 L24.3035121,18.864067 L24.3035121,18.7279136 L24.1695332,18.7279136 L24.1695332,18.864067 Z M26.6928024,16.0048469 L26.8267813,16.0048469 L26.7597919,15.8686935 L26.6928024,16.0048469 Z M25.6433011,19.7036792 L25.6433011,19.9306015 L25.5763116,19.8625248 L25.6433011,19.7036792 Z M32.7441827,17.8883014 L32.6325336,17.0713814 L32.6325336,15.3694646 L32.5655442,14.6206213 L33.436407,9.92333113 L34.8208556,5.13527209 L35.3344414,3.84181538 L35.9373464,2.72989645 L36.1606446,2.480282 L36.3616129,2.07182199 L37.0315074,2.07182199 L38.9518717,3.13835647 L39.4207978,3.25181758 L40.2246712,4.13681428 L40.2246712,4.49988984 L40.1130221,4.61335096 L39.5101171,4.84027319 L38.9742015,5.61180877 L37.567423,9.62833223 L37.567423,9.80987002 L37.455774,10.0367922 L37.3217951,10.5133289 L37.210146,10.5814056 L37.1654863,10.9217889 L37.0538373,11.2167878 L36.964518,11.330249 L36.964518,11.534479 L36.7412198,12.0564001 L36.8082093,12.2379379 L36.5625813,12.5783212 L36.7412198,12.4194757 L36.8528689,12.4648601 L36.7412198,12.5102445 L36.6519006,13.1910112 L36.4062726,14.0079313 L36.4062726,14.1667768 L36.5179217,14.2348535 L36.2946235,14.7340824 L36.2276341,15.0063891 L36.2276341,15.5963869 L36.0489955,16.0729236 L35.9373464,16.0729236 L35.8926868,16.3679224 L35.6917185,16.5494602 L35.5577396,16.5494602 L35.379101,16.9125358 L35.0664836,17.0713814 L34.8208556,17.3209958 L34.6198873,17.3209958 L34.4189189,17.6159947 L34.1286313,17.8883014 L33.436407,18.7732981 L33.2577685,19.1363737 L33.0568001,18.9321436 L32.7441827,17.8883014 Z M36.8082093,13.2363957 L36.6965602,13.2363957 L36.8082093,12.8733201 L36.8082093,13.2363957 Z M36.0489955,15.6644635 L36.0489955,15.3694646 L35.9596763,15.6644635 L36.0489955,15.6644635 Z M42.8149299,19.0229125 L42.680951,19.272527 L41.7654285,18.9548359 L40.738257,18.1606081 L40.1800116,17.4344569 L39.7110854,16.526768 L39.1305102,14.7113902 L39.2421593,14.7113902 L39.2421593,14.8021591 L39.4431276,15.2106191 L39.4431276,14.8021591 L39.3314785,14.8021591 L39.3314785,14.3936991 L39.398468,14.5298524 L39.4877873,14.5298524 L39.2198295,13.1456268 L39.0411909,12.7825512 L39.1081804,11.1260189 L39.2421593,10.3090989 L39.8673941,8.44833664 L41.2071831,5.79334655 L42.6362914,3.72835426 L44.1323891,2.13989866 L46.9459459,0.074906367 L47.9507877,0.437981934 L48.151756,0.619519718 L48.9556294,0.869134171 L48.9556294,1.05067195 L49.0226189,1.11874862 L49.1119381,0.982595285 L49.3129065,1.18682529 L49.4468854,1.11874862 L49.4468854,1.23220974 L49.6478537,1.45913197 L49.7818326,1.18682529 L49.7818326,1.52720864 L49.8488221,1.30028641 L50.0721202,1.52720864 L50.0721202,1.70874642 L50.2730886,1.59528531 L50.340078,1.66336197 L50.4517271,1.59528531 L50.6080358,1.66336197 L50.6080358,1.79951531 L50.8983235,1.79951531 L51.568218,2.57105089 L51.925495,3.16104869 L52.1487932,4.20489095 L52.1487932,5.77065433 L51.6352074,7.88103106 L51.568218,8.38025997 L51.2779303,9.26525666 L50.6526955,9.92333113 L49.9381413,10.1956378 L49.0672785,10.3317911 L48.151756,10.1048689 L46.8566267,9.53756334 L46.6556583,9.26525666 L46.7226478,8.85679665 L46.8566267,8.69795109 L48.2187455,4.06873761 L48.2187455,3.54681648 L47.9061281,3.43335536 L47.4148721,3.95527649 L46.9906056,4.1595065 L46.7896372,4.36373651 L46.5663391,4.43181317 L46.45469,4.63604318 L45.717806,5.5437321 L45.6508166,5.72526988 L45.2935395,6.08834545 L45.0925712,6.49680546 L44.6906345,7.13218771 L44.5343258,7.17757215 L44.0653996,8.08526107 L43.9314207,8.22141441 L43.775112,8.69795109 L43.3508455,9.35602556 L42.9935684,10.5133289 L42.9935684,11.0579423 L42.926579,11.1940956 L42.7256106,12.5783212 L42.7256106,13.4179335 L42.5693019,13.5540868 L42.5693019,13.8263935 L42.7256106,14.2575457 L42.7256106,15.0744657 L42.8595895,15.0063891 L42.7926001,15.2106191 L42.7926001,15.4829258 L42.7256106,15.5510024 L42.9935684,16.2544613 L42.9935684,16.4586913 L43.2615262,16.7536902 L43.3955051,16.6629213 L43.3955051,16.7536902 L43.2615262,16.8671514 L43.4624946,16.8671514 L44.2217083,16.0956158 L45.4275184,14.5298524 L45.360529,14.3256224 L44.9585923,14.3256224 L44.5343258,13.8944701 L44.0653996,13.6221635 L43.5964735,13.0094735 L43.5964735,12.5783212 L43.4624946,12.6463979 L43.7974418,11.9656312 L44.2440382,12.0790923 L44.1323891,11.8975545 L44.2217083,11.738709 L44.3556872,11.738709 L44.3556872,11.8294779 L44.8916028,11.8748623 L47.057595,11.4664023 L47.057595,11.5571712 L48.3527244,11.5571712 L48.5760225,11.4890945 L48.7769909,11.5571712 L49.245917,11.5571712 L49.1119381,11.4210178 L48.8439803,11.4890945 L48.8439803,10.9898656 L48.9556294,10.9898656 L49.1119381,10.9217889 L49.245917,11.0579423 L49.3798959,11.0579423 L49.4468854,11.1940956 L49.3129065,11.3529412 L49.4468854,11.4210178 L49.3798959,11.5571712 L49.5138748,11.5571712 L49.6255239,11.6706323 L50.3847377,11.8294779 L50.6750253,11.8294779 L51.3002602,11.9883234 L51.6128776,12.3060145 L51.7245267,12.8733201 L51.568218,13.1910112 L51.4119092,13.3498568 L51.3449198,13.5540868 L51.2779303,13.4179335 L51.0323024,13.8037013 L51.0323024,14.1440846 L50.8090042,14.2575457 L50.340078,14.2575457 L50.2730886,14.3936991 L49.9158115,14.6433135 L49.8488221,14.5752368 L49.7818326,14.7113902 L49.6478537,14.8021591 L49.737173,14.5979291 L49.245917,14.5298524 L49.1789276,14.4617757 L48.7769909,14.4617757 L48.7769909,14.7113902 L48.7100014,15.0063891 L48.643012,14.5752368 L48.3303946,14.4844679 L47.6158404,14.7113902 L47.3478826,15.0063891 L47.4148721,15.2786957 L47.6158404,15.0744657 L47.6828299,15.2560035 L47.8168088,15.0063891 L47.9507877,15.0063891 L47.8168088,14.8021591 L47.9284579,14.6660057 L48.0177771,14.8702357 L48.1070964,14.9383124 L48.0177771,15.2786957 L47.8168088,15.2786957 L47.9954473,15.5283102 L48.151756,15.3467724 L48.3303946,15.3467724 L48.2187455,15.5510024 L48.151756,15.8460013 L48.0177771,15.6871558 L47.8837982,15.7779247 L47.7498193,15.7779247 L47.6828299,15.6190791 L47.6828299,15.9821547 L47.5265212,16.0956158 L47.6828299,16.1636924 L47.5265212,16.1636924 L47.5265212,16.6402291 L47.2139037,16.8671514 L47.057595,16.8671514 L46.9236161,16.7536902 L47.0352652,17.1167658 L46.9236161,17.2302269 L46.7449776,17.0486891 L46.6779881,17.3663803 L46.7896372,17.5025336 L46.7896372,17.6159947 L46.6779881,17.7748403 L46.5886689,17.7067636 L46.5216794,18.0471469 L46.3877005,18.0471469 L46.2537216,17.9109936 L46.2537216,18.1833003 L46.3877005,18.251377 L46.1867322,18.3194536 L46.0974129,18.251377 L46.0974129,18.0244547 L45.8294551,18.7279136 L45.4275184,18.8413748 L45.4275184,18.3875303 L45.2935395,18.5236836 L45.2935395,18.9548359 L44.8916028,18.9548359 L44.7129643,19.0229125 L44.6013152,18.8186825 L44.4896661,19.0002203 L44.2440382,19.0909892 L44.0653996,18.9548359 L43.9760804,19.0456048 L44.0653996,19.1363737 L43.9314207,19.2271425 L43.7974418,19.2271425 L43.7974418,19.1363737 L43.529484,19.2952192 L43.5964735,19.1363737 L43.4624946,19.068297 L43.2615262,19.2271425 L43.172207,19.3632959 L43.0828877,19.1817581 L42.8149299,19.0229125 Z M48.4197138,15.1425424 L48.2857349,15.2106191 L48.4197138,14.9383124 L48.5760225,14.9383124 L48.5760225,15.2786957 L48.4867033,15.4829258 L48.4197138,15.2786957 L48.4197138,15.1425424 Z M47.9507877,16.526768 L48.0177771,16.4586913 L48.0177771,16.5948447 L48.2187455,16.5948447 L48.2857349,16.6629213 L48.0177771,16.7536902 L47.9507877,16.526768 Z M47.6158404,17.139458 L47.6158404,17.3663803 L47.5265212,17.3663803 L47.4595317,17.5025336 L47.4595317,17.2983036 L47.6158404,17.139458 Z M47.8837982,17.0033047 L47.9731175,17.0940736 L47.8837982,17.2983036 L47.794479,17.0940736 L47.8837982,17.0033047 Z M48.5090331,16.3679224 L48.3527244,16.526768 L48.4197138,16.1636924 L48.5090331,16.3679224 Z M47.1469143,17.9790703 L47.1469143,18.1152236 L47.057595,18.1833003 L46.9906056,18.1152236 L47.1469143,17.9790703 Z M46.9906056,17.8429169 L46.8566267,17.8429169 L46.8566267,17.7067636 L46.9906056,17.8429169 Z M48.643012,15.8460013 L48.5760225,16.0956158 L48.5760225,15.914078 L48.643012,15.8460013 Z M48.1070964,16.0275391 L47.9507877,16.1636924 L48.0177771,16.0275391 L48.1070964,16.0275391 Z M66.9534615,3.41066314 L66.9534615,3.84181538 L67.1767596,4.1595065 L67.1767596,4.29565984 L67.2437491,4.49988984 L67.2437491,4.72681207 L67.1767596,4.59065874 L67.0204509,4.49988984 L66.9534615,4.59065874 L67.1097702,4.72681207 L66.9981211,4.81758096 L67.1767596,5.13527209 L67.1767596,5.49834765 L67.1097702,5.63450099 L66.886472,4.72681207 L66.8194826,4.79488874 L66.8194826,5.20334876 L66.7524931,5.49834765 L66.7524931,5.74796211 L66.9534615,5.74796211 L66.5515248,6.99603437 L66.5515248,7.20026438 L66.3505564,7.60872439 L66.3505564,7.74487773 L66.4175459,7.8129544 L66.3505564,8.10795329 L66.283567,8.03987662 L66.1719179,8.40295219 L66.3505564,8.3121833 L66.3505564,9.40141 L66.1942477,9.83256224 L66.1272583,10.21833 L66.0602688,10.1729456 L65.9932794,10.21833 L66.0602688,10.3771756 L65.9932794,10.6494823 L65.9932794,10.9898656 L65.8146408,11.2167878 L65.8816303,11.534479 L65.6806619,12.7825512 L65.6806619,13.1456268 L65.4573638,13.1456268 L65.6136725,13.8944701 L64.8544587,17.6159947 L64.5641711,18.0925314 L64.452522,18.659837 L64.452522,18.864067 L64.3185431,18.864067 L64.1845642,18.7959903 L63.7602977,18.7279136 L63.5593294,18.9321436 L63.4253505,18.9321436 L63.4253505,19.068297 L63.1573927,19.068297 L63.0904032,19.0002203 L62.9564243,19.068297 L63.0457436,18.9321436 L63.0457436,18.7279136 L62.8894349,18.9321436 L62.5544876,19.068297 L62.2865298,19.068297 L62.2865298,18.9321436 L61.9292528,19.1590659 L61.9292528,19.0002203 L61.8622633,19.1363737 L61.7729441,19.0456048 L61.4826565,19.2044503 L61.3263477,19.068297 L61.1923688,19.1363737 L60.924411,19.3859881 L60.7234427,18.9321436 L60.7234427,18.7959903 L60.6117936,18.6825292 L60.5001445,17.6159947 L57.9992051,10.21833 L57.9322156,10.2864067 L57.7312473,11.2848645 L57.7312473,11.5117867 L57.5302789,11.8067856 L57.5972684,11.942939 L57.5302789,12.1017845 L57.5302789,12.3060145 L57.3963,12.4421679 L57.3963,13.3271646 L57.1730019,13.7583168 L57.1730019,13.9625468 L56.9943633,14.5298524 L56.5924267,14.9836968 L56.5924267,15.1879269 L56.4361179,15.3467724 L56.1681601,15.8233091 L56.1011707,16.0275391 L56.0341812,15.9594624 L55.8555427,16.0502313 L55.4312762,16.7763825 L55.2972973,16.9125358 L55.2303078,17.139458 L55.1409886,17.0486891 L54.9400202,17.139458 L54.7837115,17.5706103 L54.4710941,17.8883014 L53.868189,19.068297 L53.6225611,19.068297 L53.0419858,17.1848425 L53.0419858,15.1879269 L54.0021679,8.92487332 L54.0914872,8.72064331 L54.2701257,7.60872439 L55.2303078,4.22758317 L55.3196271,3.22912536 L55.6099147,2.59374312 L55.8778725,2.34412866 L56.0341812,2.52566645 L56.2351496,2.59374312 L56.302139,2.66181978 L56.5924267,2.7752809 L57.3293106,3.2745098 L58.2225033,3.61489315 L58.4234716,3.61489315 L58.490461,3.68296982 L58.8700679,3.84181538 L59.3613239,4.29565984 L59.6292817,4.43181317 L59.9195693,4.72681207 L60.4331551,5.49834765 L60.9914005,6.79180436 L61.8622633,9.76448557 L61.9292528,9.83256224 L62.2195404,8.78871998 L62.2865298,8.72064331 L62.8894349,6.72372769 L63.1573927,6.08834545 L63.4030207,5.36219432 L63.4923399,5.49834765 L63.6933083,5.49834765 L63.6933083,5.18065653 L63.4253505,5.27142542 L63.6933083,4.72681207 L63.4923399,4.93104208 L63.4923399,4.6587354 L64.69815,2.23066755 L64.8097991,2.54835867 L64.7204798,2.70720423 L64.7204798,2.84335757 L65.5690129,2.32143644 L65.3010551,2.20797532 L65.3903743,2.11720643 L65.7029918,1.9810531 L65.6136725,1.82220753 L65.9486197,1.82220753 L66.0156092,1.66336197 L66.5738546,1.82220753 L66.4175459,2.1852831 L66.4175459,2.66181978 L66.5515248,2.59374312 L66.6855037,2.02643754 L66.6855037,2.25335977 L66.5961844,2.7752809 L66.7524931,2.93412646 L66.6855037,3.0702798 L66.6855037,3.41066314 L66.6185142,3.47873981 L66.6855037,3.54681648 L66.7524931,3.84181538 L66.9088018,3.72835426 L66.886472,3.47873981 L66.9534615,3.41066314 Z M65.4796936,9.19718 L65.6136725,8.99294999 L65.6136725,8.72064331 L65.7476514,8.44833664 L65.8146408,8.17602996 L65.9486197,8.17602996 L66.1719179,7.92641551 L66.0602688,7.8129544 L65.9932794,7.97179996 L65.9486197,7.90372329 L65.7699812,7.90372329 L65.6136725,8.17602996 L65.546683,8.38025997 L65.3010551,8.38025997 L65.4796936,9.19718 Z M65.3010551,10.4906367 L65.3903743,10.0367922 L65.4796936,9.96871558 L65.4796936,9.62833223 L65.6136725,9.40141 L65.435034,9.40141 L65.3233849,8.92487332 L65.2563954,9.33333333 L65.1000867,9.49217889 L65.189406,9.83256224 L65.189406,10.3771756 L65.3010551,10.4906367 Z M65.7476514,7.67680106 L65.8816303,7.60872439 L65.9486197,7.47257105 L66.0602688,7.47257105 L66.1272583,6.72372769 L65.9932794,6.79180436 L65.8146408,6.79180436 L65.8146408,7.40449438 L65.7476514,7.54064772 L65.7476514,7.67680106 Z M65.546683,8.10795329 L65.6136725,8.03987662 L65.6136725,7.74487773 L65.4573638,7.83564662 L65.546683,8.10795329 Z M64.7874693,9.76448557 L64.8767886,9.26525666 L64.7874693,9.26525666 L64.7874693,9.76448557 Z M64.6534904,10.2864067 L64.6534904,10.1048689 L64.5641711,9.96871558 L64.5641711,10.21833 L64.6534904,10.2864067 Z M64.9214482,8.72064331 L65.0554271,8.58448998 L65.0554271,8.38025997 L64.9214482,8.72064331 Z M56.7264055,14.1667768 L56.793395,14.3029302 L56.793395,13.9625468 L56.7264055,14.1667768 Z M65.4796936,6.9279577 L65.5690129,6.72372769 L65.4796936,6.72372769 L65.4796936,6.9279577 Z M64.8544587,9.06102666 L64.9214482,9.26525666 L64.9214482,8.99294999 L64.8544587,9.06102666 Z M56.5254372,14.6660057 L56.5924267,14.7113902 L56.5254372,14.5298524 L56.5254372,14.6660057 Z M65.6136725,8.44833664 L65.6136725,8.58448998 L65.546683,8.51641331 L65.6136725,8.44833664 Z M76.6411331,18.4489105 L75.8595895,18.1085271 L74.8994074,16.8377626 L74.8994074,15.952766 L74.832418,15.8846893 L74.832418,15.3173837 L74.9663969,14.4096948 L77.8246134,6.58087787 L79.209062,4.15281001 L80.1469143,2.83666108 L81.5983524,1.29358992 L82.5362047,0.612823232 L82.6925134,0.544746563 L82.737173,0.476669895 L83.8090042,0.0455176583 L84.1216216,0.204363219 L84.7245267,0.612823232 L85.1934528,1.11205214 L85.2827721,1.11205214 L85.4614106,1.29358992 L85.6177193,1.29358992 L86.4439225,2.0651255 L86.510912,2.22397106 L86.6225611,2.22397106 L86.7118803,2.3601244 L86.8458592,2.40550885 L86.9128487,2.63243108 L87.4041046,3.29050554 L87.3147854,3.99396445 L87.1808065,4.22088668 L87.113817,4.58396225 L86.7788698,5.33280561 L86.6225611,5.49165117 L85.6177193,7.01203011 L85.0594739,7.62472013 L84.568218,8.35087126 L83.4517271,8.66856238 L82.2682469,8.60048571 L81.88864,8.50971682 L81.2410753,9.98471131 L81.1294262,9.64432797 L80.9731175,9.64432797 L79.6109987,12.8893159 L79.4323602,13.0708536 L79.209062,14.023927 L78.8741148,14.7046937 L78.6731464,15.5443059 L78.7847955,15.5443059 L79.3207111,15.2266148 L79.3877005,14.9770004 L79.4770198,15.045077 L79.6779881,15.045077 L79.811967,14.9089237 L81.2857349,14.0466192 L82.8488221,11.4597058 L83.4963868,10.8470158 L84.0323024,10.9377847 L84.3002602,11.1647069 L84.5235583,11.1647069 L84.5235583,11.3008602 L84.6575372,11.2327836 L84.6575372,11.3689369 L84.7915161,11.3689369 L85.1264634,11.6639358 L85.0594739,11.7093203 L85.1934528,11.7773969 L85.3497615,11.7773969 L85.3497615,12.0723958 L85.4614106,11.9135503 L86.1089753,12.6850858 L86.3546033,13.1843148 L86.3546033,13.5927748 L86.2206244,13.7289281 L86.1089753,13.9331581 L86.019656,13.9331581 L85.6847088,14.2735415 L85.6847088,14.4550792 L85.4614106,14.5458481 L85.3944212,14.840847 L85.0148143,15.3854604 L84.4565689,15.952766 L84.3895794,16.0889193 L84.3002602,15.9981504 L84.0323024,16.2931493 L83.0274606,16.3385337 L82.4022258,16.769686 L82.3352363,16.7016093 L82.2012574,16.9058393 L82.0672785,16.8377626 L81.9779592,16.9966082 L81.9779592,17.1100693 L81.7100014,17.4050682 L81.3080647,17.6092982 L81.040107,17.9042971 L80.7721492,17.9042971 L80.4372019,18.1085271 L80.3702125,17.9496816 L80.2585634,17.9496816 L80.1245845,18.2446805 L79.9459459,18.2446805 L79.6779881,18.0858349 L79.5440092,18.0858349 L79.5440092,18.2900649 L79.4770198,18.2446805 L79.2760515,18.2446805 L78.9857638,18.4489105 L78.8741148,18.2900649 L78.7847955,18.4489105 L78.5838271,18.4489105 L78.5168377,18.3581416 L78.3828588,18.4489105 L77.9809221,18.4489105 L77.8916028,18.3581416 L77.623645,18.5169871 L77.5566556,18.3581416 L77.4226767,18.5169871 L76.8867611,18.7892938 L76.8867611,18.4489105 L76.6411331,18.4489105 Z M75.2783639,19.0391286 L75.2783639,18.9256675 L75.2113745,18.9937441 L75.2783639,19.0391286 Z M87.3817748,18.9254472 L87.1361468,18.0858349 L87.5157537,17.7227593 L87.4264345,16.9512238 L87.4264345,14.9770004 L88.699234,6.44472453 L88.7662234,6.26318675 L88.7662234,5.87741896 L88.944862,5.31011338 L89.2798092,3.94858001 L89.8380546,2.33743218 L89.9050441,1.83820327 L90.1060124,1.49781993 L90.3293106,1.33897437 L91.0661945,1.63397327 L91.1108542,1.70204993 L91.2448331,1.70204993 L92.4283133,2.72319997 L93.3884954,3.35858221 L93.5001445,3.56281222 L93.7681023,3.81242667 L93.924411,4.15281001 L93.567134,5.17396005 L93.4554849,5.31011338 L93.4554849,5.4235745 L93.2768464,6.08164896 L93.2768464,6.49010898 L93.0088886,6.85318455 L93.0088886,7.48856679 L92.7409308,9.12240684 L92.6292817,9.32663685 L91.8700679,12.9120081 L92.0487065,12.9120081 L92.6962711,12.5716247 L92.8525799,12.2539336 L93.0088886,12.2539336 L93.1428675,12.1177803 L93.321506,12.1177803 L93.6564532,11.9589347 L94.5273161,12.4581636 L94.7952739,12.7077781 L94.906923,12.7077781 L94.906923,12.8439314 L95.1525509,12.8439314 L95.5321578,13.4793136 L95.6884665,13.615467 L95.5768175,13.7062359 L95.6884665,14.0012348 L96.1127331,14.2508492 L96.1127331,14.3643103 L96.3137014,14.1827726 L96.358361,14.3643103 L96.6933083,14.6139248 L96.3137014,14.7500781 L96.2243821,14.9770004 L95.9787542,15.0223848 L95.9787542,14.8862315 L96.1797225,14.8862315 L96.1797225,14.636617 L96.1127331,14.7046937 L95.9117647,14.7046937 L95.8001156,14.636617 L95.8001156,14.7500781 L95.8671051,14.8862315 L95.8671051,15.2039226 L95.7331262,15.2039226 L95.5991473,15.3400759 L95.5321578,15.2719993 L95.4651684,15.2039226 L95.4651684,14.9770004 L95.3088597,15.1358459 L95.2418702,14.9770004 L95.0855615,15.3400759 L94.9739124,15.0904615 L94.9739124,15.3627682 L94.7952739,15.4762293 L94.5496459,15.4762293 L94.3933372,15.7939204 L94.2816881,15.7939204 L94.170039,15.9073815 L94.170039,16.1343037 L93.6564532,16.4293026 L93.5001445,16.7016093 L92.9418991,17.2689149 L92.83025,17.4504527 L91.981717,18.3127571 L91.981717,18.4262183 L91.9370574,18.4942949 L91.9370574,18.6304483 L91.8030785,18.6304483 L91.490461,18.9481394 L91.4234716,18.8800627 L91.2671629,19.0389083 L91.0661945,18.9481394 L90.9545455,19.1296772 L90.7982367,18.9481394 L90.6642578,18.9481394 L90.5526088,19.1523694 L89.9497037,19.0616005 L89.8157248,18.8346783 L89.7264055,19.1523694 L89.5924267,19.1523694 L89.5254372,19.0162161 L89.2128198,19.2204461 L89.0341812,19.2204461 L88.8778725,19.3339072 L88.3196271,19.3339072 L87.6943923,19.2204461 L87.3817748,18.9254472 Z M95.6884665,14.4096948 L95.7331262,14.5685404 L95.8671051,14.4550792 L95.9117647,14.5685404 L95.9787542,14.5231559 L95.9787542,14.432387 L95.7331262,14.2508492 L95.6884665,14.4096948 Z M106.2728,9.68971241 L106.22814,9.44009796 L106.004842,9.59894352 L106.004842,9.80317353 L105.781544,10.0300958 L105.647565,10.3704791 L105.468926,10.6427858 L105.468926,11.1873991 L105.200968,11.4597058 L105.200968,11.8454736 L105.111649,12.0043192 L105.111649,12.3673947 L104.843691,12.7531625 L104.843691,12.9347003 L104.642723,12.9347003 L104.642723,13.2296992 L104.464084,13.5020059 L104.464084,13.1389303 L104.374765,13.2977759 L104.464084,13.5020059 L104.307776,13.5020059 L104.263116,13.411237 L104.263116,13.9331581 L103.995158,14.0693114 L103.928169,14.5685404 L103.83885,14.7046937 L103.928169,14.7954626 L103.83885,14.840847 L103.83885,14.9770004 L103.570892,15.249307 L103.526232,15.3854604 L103.302934,15.3854604 L103.302934,15.7258437 L103.191285,15.8619971 L103.191285,15.5216137 L103.012646,16.2250726 L102.923327,16.1343037 L102.655369,16.2704571 L102.52139,16.2704571 L102.320422,16.4746871 L102.097124,16.4746871 L102.030134,16.769686 L101.784506,16.9512238 L101.717517,16.8831471 L101.918485,16.6789171 L101.829166,16.6108404 L101.717517,16.6108404 L101.717517,16.7469938 L101.583538,16.8831471 L101.449559,17.1554538 L101.181601,17.2916071 L100.958303,17.2916071 L100.868984,17.4958371 L100.645686,17.2916071 L100.712675,17.4958371 L100.444717,17.3369916 L100.333068,17.4277604 L100.1321,17.4277604 L100.221419,17.2008382 L99.8641422,17.4277604 L99.8641422,17.5412216 L99.4398757,17.7000671 L99.1719179,17.4958371 L98.8816303,17.4958371 L98.1224165,16.973916 L97.3855326,15.9981504 L97.3855326,15.7939204 L97.2292239,15.8619971 L97.1175748,15.453537 L97.1175748,15.3173837 L96.9835959,15.2039226 L96.9166064,14.7954626 L96.6486486,13.7743125 L96.6486486,9.14509906 L97.6534904,3.31319776 L98.1670762,1.74743438 L98.5913427,0.998591023 L98.9486197,0.567438786 L99.4845353,0.680899901 L100.355398,1.29358992 L100.444717,1.29358992 L101.181601,1.61128104 L101.31558,1.74743438 L101.583538,1.88358772 L102.56605,2.90473775 L102.320422,3.4493511 L102.186443,3.51742777 L102.186443,3.83511889 L101.985475,4.40242447 L101.717517,5.49165117 L100.980633,11.5277825 L100.980633,12.4127792 L103.101966,9.21317573 L104.062148,7.05741455 L104.575733,4.47050113 L104.642723,4.40242447 L104.642723,4.26627113 L104.732042,3.99396445 L104.732042,3.38127443 L104.508744,3.1543522 L104.575733,2.90473775 L105.04466,2.42820107 L105.200968,2.08781772 L105.200968,1.95166439 L105.759214,1.74743438 L106.518428,1.88358772 L106.652406,2.15589439 L106.786385,2.15589439 L107.500939,2.70050774 L107.746567,3.04089109 L108.059185,3.38127443 L108.327143,3.92588778 L108.505781,4.74280781 L108.394132,5.21934449 L108.394132,5.40088228 L108.193164,5.76395784 L108.059185,6.53549342 L107.746567,7.05741455 L107.590259,7.48856679 L107.322301,7.62472013 L107.322301,7.80625791 L107.054343,8.05587236 L106.786385,8.55510127 L106.741726,8.82740794 L106.518428,8.94086906 L106.362119,9.34932907 L106.25047,9.44009796 L106.2728,9.55355908 L106.2728,9.68971241 Z M103.570892,14.9770004 L103.637881,14.8635392 L103.7272,14.9770004 L103.660211,14.3416181 L103.459243,14.636617 L103.570892,14.840847 L103.570892,14.9770004 Z M101.38257,16.7923782 L101.583538,16.7923782 L101.583538,16.4066104 L101.471889,16.7016093 L101.38257,16.7923782 Z M100.333068,17.4277604 L100.444717,17.1554538 L100.333068,17.2916071 L100.333068,17.4277604 Z M108.528111,18.0858349 L108.282483,16.4746871 L108.237823,14.9996926 L108.371802,12.798547 L108.68442,10.6881702 L110.158188,4.6293467 L111.297008,1.7701266 L111.810594,0.953206577 L111.855254,0.567438786 L112.212531,0.113594327 L112.480489,0.113594327 L113.239702,0.52205434 L114.869779,0.181670996 L115.852291,0.13628655 L118.263911,0.590131009 L119.201763,1.08935991 L119.715349,1.67935771 L119.983307,2.6551233 L119.826998,3.85781112 L119.536711,4.24357891 L119.246423,4.8335767 L118.554199,5.7185734 L118.263911,5.9228034 L117.906634,6.24049453 L117.638676,6.42203231 L117.14742,6.67164676 L116.991111,6.89856899 L116.499855,7.26164456 L116.455196,7.19356789 L116.120249,7.35241345 L116.231898,7.46587457 L117.21441,7.71548902 L117.326059,7.78356569 L117.549357,7.78356569 L118.576528,8.28279459 L118.799827,8.55510127 L118.889146,8.80471572 L119.067784,8.80471572 L119.045455,9.00894573 L119.291083,9.46279019 L119.246423,9.53086685 L119.224093,9.71240464 L118.978465,9.91663464 L119.067784,9.78048131 L119.134774,9.32663685 L118.978465,9.53086685 L118.911476,10.0300958 L119.112444,10.0300958 L119.157104,10.0981724 L118.844486,10.4385558 L118.822156,10.6881702 L118.956135,10.6881702 L118.911476,10.869708 L118.732837,11.1873991 L118.710507,11.3916291 L118.844486,11.3916291 L118.889146,11.5277825 L118.978465,11.4597058 L119.000795,11.3235525 L119.246423,11.1873991 L119.291083,10.9377847 L119.157104,10.9377847 L119.134774,11.073938 L119.000795,11.1873991 L118.889146,11.073938 L119.134774,10.6200936 L119.291083,10.4839402 L119.335742,10.5520169 L119.492051,10.4839402 L119.358072,10.8243236 L119.536711,10.9377847 L119.670689,10.9377847 L119.58137,11.5731669 L119.402732,11.6639358 L119.201763,12.0270114 L119.268753,12.095088 L119.313412,12.2993181 L119.224093,12.3447025 L119.291083,12.4127792 L119.201763,12.4808558 L119.090114,12.798547 L118.956135,12.8666236 L118.889146,12.798547 L118.844486,13.2296992 L118.576528,13.3431603 L118.598858,13.2523914 L118.3309,13.3204681 L118.509539,13.411237 L118.487209,13.5700825 L118.3309,13.6381592 L118.308571,13.7743125 L118.44255,13.7743125 L118.196922,13.9104659 L118.107602,14.023927 L117.973623,13.9558503 L117.884304,14.1600803 L117.594016,14.5458481 L117.236739,14.7954626 L117.594016,14.4096948 L117.415378,14.4096948 L117.21441,14.4777715 L117.19208,14.6139248 L117.035771,14.8635392 L116.991111,14.7954626 L116.924122,14.8635392 L117.12509,15.0223848 L116.946452,15.1812304 L116.611505,14.9543081 L116.432866,15.1812304 L116.298887,15.1812304 L116.0086,15.453537 L115.829961,15.7031515 L115.96394,15.7031515 L116.120249,15.5669982 L116.097919,15.7031515 L116.321217,15.453537 L116.388206,15.6350748 L115.96394,15.8393048 L115.517344,15.8393048 L115.428024,15.952766 L115.539673,16.0889193 L115.628993,15.952766 L115.807631,15.952766 L115.450354,16.2704571 L115.338705,16.156996 L114.914439,16.3385337 L114.847449,16.4746871 L114.802789,16.4066104 L114.646481,16.4066104 L114.445512,16.6108404 L114.71347,16.156996 L114.557161,16.2250726 L114.802789,15.8846893 L114.512502,16.0889193 L114.043576,16.6108404 L114.244544,16.2704571 L114.400853,16.156996 L114.333863,16.0889193 L114.110565,16.2704571 L113.864937,16.6789171 L113.820277,16.6108404 L113.463,16.8604549 L113.373681,16.9966082 L113.262032,16.9285315 L113.284362,16.7923782 L113.038734,16.7923782 L113.172713,16.6789171 L113.418341,16.6789171 L113.686299,16.6108404 L113.976586,16.3385337 L113.998916,16.2250726 L113.663969,16.4746871 L113.396011,16.4746871 L113.306692,16.6108404 L112.882425,16.5427637 L112.458159,16.7243015 L112.435829,16.8604549 L112.592138,16.7923782 L112.636797,16.8604549 L112.569808,16.9285315 L112.547478,17.0646849 L112.413499,17.1100693 L112.391169,17.2462227 L112.525148,17.178146 L112.681457,17.178146 L112.167871,17.4958371 L112.190201,17.3142993 L112.27952,17.2462227 L112.234861,17.1100693 L112.234861,16.9966082 L112.100882,17.0646849 L112.190201,16.9285315 L112.056222,16.9285315 L112.033892,17.0646849 L112.100882,17.2008382 L111.899913,17.6319904 L111.899913,17.9496816 L111.788264,17.9496816 L111.654285,18.0177582 L111.765934,17.7681438 L111.654285,17.5639138 L111.497977,17.4958371 L111.743605,17.382376 L111.520306,17.2462227 L111.497977,17.382376 L111.11837,17.382376 L111.07371,17.7000671 L110.984391,17.8816049 L110.917401,17.8135282 L111.09604,17.1100693 L111.230019,16.9966082 L111.453317,16.7243015 L111.408657,17.1100693 L111.609626,16.6108404 L111.832924,16.3839182 L111.922243,16.769686 L112.167871,16.5427637 L112.078552,16.4066104 L111.922243,16.4066104 L112.368839,16.1116115 L112.368839,16.0208426 L112.32418,15.952766 L112.703787,15.8846893 L112.726116,15.7031515 L112.547478,15.7031515 L112.30185,15.6350748 L112.145541,15.7712282 L111.899913,15.7712282 L111.966903,15.8393048 L111.922243,16.0662271 L111.698945,15.9300737 L111.319338,16.7243015 L111.1407,16.7243015 L110.895072,16.9966082 L110.872742,17.178146 L110.582454,17.5639138 L110.537794,17.8362205 L110.359156,17.8362205 L109.957219,18.8573705 L109.91256,19.1750616 L109.555283,19.4927527 L109.443633,19.6742905 L108.528111,18.0858349 Z M111.542636,14.7954626 L111.832924,14.5458481 L112.123211,14.4550792 L116.164908,11.073938 L117.013441,10.1208647 L116.924122,10.0074035 L116.745483,10.0981724 L116.544515,10.0981724 L114.869779,10.4158635 L114.467842,10.5520169 L114.333863,10.6881702 L114.021246,10.6881702 L113.864937,10.7562469 L113.284362,10.7562469 L112.837766,10.8924002 L112.413499,10.7789391 L112.391169,10.9377847 L112.27952,11.1873991 L112.234861,11.5277825 L111.966903,12.0270114 L112.100882,12.3673947 L111.743605,13.0254692 L111.899913,13.002777 L111.855254,13.3885448 L111.765934,13.5700825 L111.654285,13.9558503 L111.743605,14.0693114 L111.587296,14.4777715 L111.542636,14.7954626 Z M114.021246,5.9228034 L117.661006,2.92742997 L117.884304,2.56435441 L117.102761,2.56435441 L116.321217,2.70050774 L116.120249,2.70050774 L115.204726,2.90473775 L115.160066,3.22242887 L114.981428,3.83511889 L114.624151,4.31165557 L114.065905,5.55972784 L114.021246,5.9228034 Z M113.820277,14.8635392 L113.061064,15.249307 L112.726116,15.249307 L112.703787,15.453537 L112.614467,15.5669982 L112.748446,15.5669982 L112.860095,15.7031515 L112.949415,15.5669982 L113.284362,15.453537 L113.128053,15.5669982 L112.860095,15.8846893 L113.016404,15.8846893 L112.971744,15.952766 L112.837766,15.952766 L112.770776,15.8846893 L112.614467,16.0889193 L112.726116,16.2250726 L112.882425,16.156996 L112.927085,16.2704571 L113.105723,16.2250726 L113.061064,16.156996 L113.262032,16.0889193 L113.396011,15.952766 L113.128053,16.0208426 L113.641639,15.7485359 L113.50766,16.0208426 L113.57465,16.0889193 L113.463,16.2477648 L113.775618,16.1116115 L113.753288,15.8393048 L114.155225,15.5669982 L114.177555,15.453537 L113.909597,15.453537 L113.641639,15.5669982 L113.730958,15.453537 L113.641639,15.3400759 L113.931927,15.249307 L113.842607,15.3854604 L113.998916,15.3173837 L114.557161,15.2266148 L114.467842,15.1131537 L114.75813,14.8635392 L115.070747,14.7273859 L115.249386,14.5912326 L114.75813,14.7046937 L114.981428,14.4096948 L115.115407,14.4096948 L115.628993,13.9558503 L115.762972,13.9558503 L115.740642,14.1600803 L115.89695,14.023927 L115.91928,13.7743125 L116.0086,13.7062359 L116.030929,13.7743125 L116.365877,13.8877737 L116.388206,13.6381592 L116.254227,13.7062359 L116.075589,13.5700825 L115.874621,13.6381592 L115.762972,13.819697 L115.249386,13.9558503 L115.048417,14.1600803 L114.75813,14.2508492 L114.467842,14.6820015 L114.646481,14.2962337 L114.512502,14.2962337 L114.356193,14.1600803 L114.378523,14.0693114 L114.199884,14.3189259 L113.820277,14.8635392 Z M115.405694,13.8423892 L115.539673,13.8423892 L115.740642,13.6381592 L115.606663,13.7062359 L115.539673,13.7743125 L115.450354,13.6835437 L115.584333,13.5700825 L115.517344,13.5020059 L115.628993,13.4566214 L115.785301,12.9347003 L115.718312,12.8666236 L115.606663,12.8666236 L115.517344,13.0708536 L115.361035,13.2523914 L115.562003,13.1843148 L115.338705,13.3885448 L115.495014,13.3885448 L115.115407,13.615467 L115.093077,13.8423892 L115.361035,13.6381592 L115.405694,13.8423892 Z M114.356193,15.8619971 L114.624151,15.8393048 L114.624151,15.7031515 L114.512502,15.7031515 L114.71347,15.5216137 L114.75813,15.7712282 L114.847449,15.6350748 L115.026088,15.4762293 L114.936768,15.3854604 L115.271716,15.249307 L115.472684,15.0677693 L115.227056,15.0677693 L114.869779,15.2266148 L114.69114,15.5216137 L114.311533,15.7031515 L114.378523,15.7712282 L114.356193,15.8619971 Z M113.440671,17.1100693 L113.619309,17.1100693 L113.641639,16.9285315 L113.797948,16.9285315 L113.931927,16.7243015 L113.998916,16.7923782 L114.132895,16.565456 L113.931927,17.2462227 L113.775618,17.382376 L113.864937,17.2462227 L113.887267,17.0646849 L113.753288,17.0646849 L113.57465,17.3142993 L113.463,17.382376 L113.55232,17.2462227 L113.440671,17.1100693 Z M112.636797,17.790836 L112.458159,17.6319904 L112.815436,17.6319904 L113.016404,17.3142993 L113.150383,17.3142993 L113.083394,17.382376 L113.329022,17.382376 L112.949415,17.5639138 L113.038734,17.7681438 L112.949415,17.8362205 L112.837766,17.7000671 L112.636797,17.790836 Z M113.105723,14.9316159 L113.239702,14.7954626 L113.57465,14.5685404 L113.619309,14.3416181 L113.440671,14.3416181 L113.396011,14.6139248 L113.150383,14.6820015 L113.105723,14.9316159 Z M116.120249,13.2523914 L116.254227,13.2523914 L116.321217,13.1843148 L116.678494,13.0708536 L116.589175,13.002777 L116.678494,12.9347003 L116.477526,13.002777 L116.276557,13.002777 L116.075589,13.1843148 L116.120249,13.2523914 Z M115.96394,15.249307 L116.254227,14.9996926 L116.209568,14.9316159 L116.544515,14.3416181 L116.298887,14.6139248 L115.98627,15.1131537 L115.96394,15.249307 Z M114.69114,14.0693114 L114.914439,14.0920037 L115.137737,13.9558503 L114.959098,13.7743125 L114.847449,13.9558503 L114.69114,13.9558503 L114.69114,14.0693114 Z M116.901792,14.023927 L117.12509,13.9104659 L117.259069,13.7062359 L117.19208,13.6381592 L116.924122,13.9104659 L116.901792,14.023927 Z M119.134774,10.3024024 L119.201763,10.1662491 L119.246423,10.4158635 L119.112444,10.4158635 L119.090114,10.5520169 L118.956135,10.5520169 L118.978465,10.4158635 L119.134774,10.3024024 Z M115.338705,15.3173837 L115.584333,15.249307 L115.740642,15.0677693 L115.539673,15.1812304 L115.606663,15.0677693 L115.628993,14.9316159 L115.338705,15.3173837 Z M112.413499,15.5443059 L112.592138,15.3854604 L112.547478,15.249307 L112.413499,15.3173837 L112.32418,15.453537 L112.413499,15.5443059 Z M114.088235,14.1600803 L114.110565,13.9558503 L113.864937,14.023927 L113.842607,14.228157 L114.021246,14.0920037 L114.088235,14.1600803 Z M115.628993,15.4989215 L115.762972,15.4989215 L115.785301,15.3173837 L115.829961,15.249307 L115.651322,15.249307 L115.628993,15.4989215 Z M114.423183,14.4096948 L114.177555,14.5458481 L114.199884,14.3189259 L114.423183,14.4096948 Z M115.673652,14.6139248 L115.94161,14.432387 L115.785301,14.3416181 L115.673652,14.6139248 Z M116.656164,14.8862315 L116.901792,14.5458481 L116.611505,14.7273859 L116.656164,14.8862315 Z M115.383365,14.4096948 L115.517344,14.2962337 L115.428024,14.228157 L115.316375,14.3189259 L115.383365,14.4096948 Z M112.860095,14.8635392 L112.994074,14.8635392 L112.994074,14.7273859 L112.860095,14.7273859 L112.860095,14.8635392 Z M114.71347,16.156996 L114.668811,16.3385337 L114.892109,16.156996 L114.71347,16.156996 Z M116.745483,14.228157 L116.991111,14.3416181 L116.678494,14.1373881 L116.745483,14.228157 Z M116.209568,14.4777715 L116.365877,14.228157 L116.231898,14.3416181 L116.209568,14.4777715 Z M117.013441,13.2523914 L117.14742,13.1843148 L117.080431,13.1162381 L117.013441,13.2523914 Z M112.27952,15.8393048 L112.056222,16.0208426 L112.145541,15.8846893 L112.27952,15.8393048 Z M114.936768,16.2250726 L115.026088,16.156996 L115.026088,16.0208426 L114.936768,16.2250726 Z M115.89695,14.7954626 L115.91928,14.6139248 L115.874621,14.6820015 L115.89695,14.7954626 Z M111.631955,16.8604549 L111.721275,16.6108404 L111.654285,16.6789171 L111.631955,16.8604549 Z M116.834803,13.5700825 L116.901792,13.5020059 L116.790143,13.5020059 L116.834803,13.5700825 Z M116.656164,13.5700825 L116.745483,13.3885448 L116.656164,13.4566214 L116.656164,13.5700825 Z M111.743605,16.0889193 L111.654285,16.2704571 L111.676615,16.156996 L111.743605,16.0889193 Z" id="Design"></path>
            <path d="M17.6369507,3.41491582 L16.5752097,2.55739648 L17.4017687,2.16380697 L19.3919497,2.12160279 L21.8006962,1.0735044 L23.1998138,2.10753473 L23.3258253,2.8413667 L23.4063968,3.47055758 L17.6369507,3.41491582 Z" id="Path-2669"></path>
            <path d="M110.348156,17.6156547 L111.255112,15.630258 L113.207141,14.2307108 L115.014019,12.8731821 L116.376272,12.5159843 L117.65591,12.7731571 L117.65591,13.6368272 L117.116179,14.4844289 L116.743577,14.84709 L116.45707,14.8694249 L116.071186,15.2892087 L115.768867,15.5446944 L115.292462,15.5732959 L114.912824,15.8170517 L114.787991,15.7956006 L114.451361,15.8742548 L114.029506,15.9956507 L113.734223,16.2297655 L113.174332,16.2503329 L112.437825,16.5218065 L112.018499,16.8487157 L111.768833,17.0585674 L111.354884,17.1156901 L111.122848,17.2425492 L110.497101,17.5980599 L110.348156,17.6156547 Z" id="Path-2667"></path>
            <path d="M65.4001044,10.6834056 L65.7604912,9.75450371 L65.7604912,9.13413672 L65.8494726,8.5812523 L66.096544,8.1713287 L66.2023429,7.88054369 L66.1614617,7.61020129 L66.1449146,7.25852811 L66.1518363,6.89045139 L66.1157949,6.49305712 L65.4810015,6.5272655 L65.1109892,7.23253523 L64.4786021,8.82326631 L64.3367348,10.0450414 C64.3367348,10.0450414 64.5050721,10.4506787 64.5339215,10.4506787 C64.5627708,10.4506787 65.0268476,10.4751054 65.0268476,10.4751054 L65.4001044,10.6834056 Z" id="Path-2668"></path>
            <path d="M25.8920746,17.4953308 L25.6842812,17.0945672 L25.9750562,16.5766843 L26.5786319,15.7912076 L27.8001584,15.5235511 L29.3296116,15.7298265 L29.4997085,16.0895859 L29.1979515,16.4736093 L27.4257231,16.4290312 L26.5917115,16.8918029 L25.8920746,17.4953308 Z" id="Path-2670"></path>
            <path d="M3.50625334,8.20936385 L2.45895734,12.2845884 L2.48573357,12.6965122 L3.40198646,11.5666998 L4.12907826,8.28190508 L3.50625334,8.20936385 Z" id="Path-2671"></path>
        </g>
    </g>
</svg>