<?xml version="1.0" encoding="utf-8"?>
<!-- Generator: Adobe Illustrator 16.0.0, SVG Export Plug-In . SVG Version: 6.00 Build 0)  -->
<!DOCTYPE svg PUBLIC "-//W3C//DTD SVG 1.1//EN" "http://www.w3.org/Graphics/SVG/1.1/DTD/svg11.dtd">
<svg version="1.1" id="Layer_1" xmlns="http://www.w3.org/2000/svg" xmlns:xlink="http://www.w3.org/1999/xlink" x="0px" y="0px"
	 width="458.977px" height="98.995px" viewBox="0 0 458.977 98.995" enable-background="new 0 0 458.977 98.995"
	 xml:space="preserve">
<g>
	<g>
		<defs>
			<rect id="SVGID_1_" x="593.721" y="-28.829" width="38.998" height="150.99"/>
		</defs>
		<clipPath id="SVGID_2_">
			<use xlink:href="#SVGID_1_"  overflow="visible"/>
		</clipPath>
		<path clip-path="url(#SVGID_2_)" d="M617.708,115.813h14.309v6.346h-37.65v-13.658c0-8.396,3.383-13.83,11.512-13.83
			c8.117,0,11.83,5.705,11.83,13.83V115.813z M599.583,109.464v6.35h12.963v-6.35c0-5.592-2.043-8.338-6.668-8.338
			C601.194,101.126,599.583,103.817,599.583,109.464"/>
		<path clip-path="url(#SVGID_2_)" d="M612.063,76.653c-0.652,0.75-0.969,1.877-0.969,2.959c0,2.959,2.58,6.186,8.064,6.186h12.859
			v6.127h-25.5v-5.754h4.145c-3.227-1.395-4.842-4.029-4.842-7.529c0-1.021,0.164-2.201,0.594-3.229L612.063,76.653z"/>
		<path clip-path="url(#SVGID_2_)" d="M619.272,50.136c8.012,0,13.447,4.895,13.447,12.795c0,7.857-5.436,12.754-13.447,12.754
			c-8.02,0-13.451-4.896-13.451-12.754C605.821,55.03,611.252,50.136,619.272,50.136 M619.272,56.372c-4.84,0-8.77,2.045-8.77,6.559
			c0,4.414,3.93,6.514,8.77,6.514s8.764-2.1,8.764-6.514C628.036,58.417,624.112,56.372,619.272,56.372"/>
		<path clip-path="url(#SVGID_2_)" d="M597.307,39.374h9.211v-5.756h4.521v5.756h13.664c2.203,0,3.012-0.967,3.012-2.42
			c0-1.076-0.432-1.885-0.861-2.689l4.789-1.672c0.641,1.293,1.076,3.23,1.076,5.223c0,4.734-2.586,7.639-7.266,7.639H611.04v4.303
			h-4.521v-4.303h-7.256h-1.955V39.374z"/>
		<path clip-path="url(#SVGID_2_)" d="M626.424,9.142c3.816,1.99,6.291,5.543,6.291,10.869c0,7.801-5.381,12.639-13.498,12.639
			c-8.016,0-13.396-4.947-13.396-12.422c0-8.176,6.186-11.994,13.127-11.994h1.719v18.182c3.82-0.164,7.482-1.832,7.482-6.354
			c0-3.121-1.617-4.625-3.822-5.643L626.424,9.142z M616.635,26.304V14.362c-4.035,0.162-6.35,2.529-6.35,5.918
			C610.286,23.882,612.924,25.978,616.635,26.304"/>
		<path clip-path="url(#SVGID_2_)" d="M593.717,2.095c0-2.199,1.457-3.762,3.713-3.762c2.047,0,3.707,1.447,3.707,3.762
			c0,2.318-1.66,3.768-3.707,3.768C595.174,5.862,593.717,4.302,593.717,2.095 M632.016-0.968v6.129h-25.498v-6.129H632.016z"/>
		<path clip-path="url(#SVGID_2_)" d="M606.518-5.919v-5.863h3.873c-2.629-1.502-4.57-4.035-4.57-8.012
			c0-4.949,2.855-9.035,8.604-9.035h17.592v6.129h-16.137c-3.658,0-5.053,2.369-5.053,4.736c0,3.066,2.631,5.916,7.691,5.916h13.498
			v6.129H606.518z"/>
	</g>
	<g>
		<path d="M712.473-43.456v14.963h9.346v7.34h-9.346V1.034c0,3.586,1.568,4.896,3.932,4.896c1.744,0,3.059-0.703,4.363-1.398
			l2.715,7.777c-2.096,1.041-5.246,1.748-8.479,1.748c-7.689,0-12.404-4.201-12.404-11.797v-23.414h-6.99v-7.34h6.99v-11.791v-3.172
			H712.473z"/>
		<path d="M673.397-23.167c14.168,2.377,21.561,7.041,21.561,18.303c0,11.354-9.416,18.922-23.672,18.922
			c-15.225,0-23.936-8.449-24.375-18.568l10.295-1.584c0.527,6.16,4.488,11.791,14.08,11.791c7.832,0,12.936-3.432,12.936-9.943
			c0-5.631-3.607-8.359-14.256-9.943c-13.199-1.936-21.646-6.424-21.646-17.688c0-11.527,9.238-17.951,22.35-17.951
			c12.496,0,21.209,6.16,23.145,16.543l-10.473,2.377c-0.967-6.514-5.104-10.561-12.936-10.561c-7.744,0-11.439,3.52-11.439,8.711
			C658.965-26.95,662.838-24.927,673.397-23.167z"/>
		<path d="M763.18,12.913h-9.504V6.665c-2.551,4.312-6.512,7.393-12.936,7.393c-7.92,0-14.52-4.664-14.52-13.992V-28.8h9.945v26.4
			c0,5.984,3.695,8.273,7.566,8.273c4.84,0,9.504-4.312,9.504-12.584V-28.8h9.943V12.913z"/>
		<path d="M800.897-23.519v-20.166h9.943v56.598h-9.504v-6.16c-2.287,3.783-6.512,7.305-13.727,7.305
			c-10.648,0-18.744-8.449-18.744-22c0-13.553,8.271-22,19.096-22C794.122-29.942,798.434-27.038,800.897-23.519z M800.897-10.142
			c0-8.801-6.16-11.881-10.912-11.881c-6.688,0-10.822,6.072-10.822,14.08c0,8.096,4.047,14.078,10.559,14.078
			c4.84,0,11.176-3.078,11.176-11.879V-10.142z"/>
		<path d="M823.989-46.741c3.607,0,6.16,2.375,6.16,6.072c0,3.344-2.375,6.07-6.16,6.07c-3.783,0-6.16-2.727-6.16-6.07
			C817.829-44.366,820.381-46.741,823.989-46.741z M818.973-28.8h10.031v41.713h-10.031V-28.8z"/>
		<path d="M876.172-7.942c0,13.111-8.008,22-20.943,22c-12.848,0-20.855-8.889-20.855-22s8.008-22,20.855-22
			C868.165-29.942,876.172-21.054,876.172-7.942z M865.963-7.942c0-7.922-3.344-14.344-10.734-14.344
			c-7.217,0-10.648,6.422-10.648,14.344c0,7.92,3.432,14.344,10.648,14.344C862.62,6.401,865.963-0.022,865.963-7.942z"/>
		<path d="M898.331-12.167c8.711,1.232,16.455,3.961,16.455,12.76c0,8.359-7.127,13.465-17.951,13.465
			c-10.295,0-17.336-4.4-18.303-12.584l9.68-1.408c0.439,4.664,3.695,6.688,8.711,6.688c4.664,0,7.832-1.762,7.832-5.455
			c0-3.256-2.289-4.576-9.24-5.633c-9.504-1.408-15.84-4.576-15.84-12.672c0-8.799,8.184-12.936,17.16-12.936
			c9.152,0,16.191,4.311,17.336,11.439l-9.68,2.025c-0.529-3.961-3.168-6.248-7.832-6.248c-3.873,0-6.951,1.76-6.951,5.016
			C889.708-14.015,893.227-12.958,898.331-12.167z"/>
	</g>
</g>
<g>
	<g>
		<defs>
			<rect id="SVGID_3_" x="17.128" y="19.557" width="150.991" height="38.997"/>
		</defs>
		<clipPath id="SVGID_4_">
			<use xlink:href="#SVGID_3_"  overflow="visible"/>
		</clipPath>
		<path clip-path="url(#SVGID_4_)" d="M23.475,43.542v14.309h-6.344V20.2H30.79c8.396,0,13.828,3.383,13.828,11.512
			c0,8.119-5.704,11.83-13.828,11.83H23.475z M29.825,25.417h-6.35V38.38h6.35c5.592,0,8.338-2.043,8.338-6.668
			C38.163,27.03,35.473,25.417,29.825,25.417"/>
		<path clip-path="url(#SVGID_4_)" d="M62.636,37.897c-0.751-0.65-1.877-0.969-2.959-0.969c-2.958,0-6.186,2.58-6.186,8.066v12.859
			h-6.126V32.354h5.753v4.144c1.395-3.227,4.03-4.842,7.531-4.842c1.02,0,2.201,0.164,3.228,0.594L62.636,37.897z"/>
		<path clip-path="url(#SVGID_4_)" d="M89.155,45.106c0,8.012-4.896,13.447-12.797,13.447c-7.857,0-12.752-5.436-12.752-13.447
			c0-8.018,4.896-13.451,12.752-13.451C84.259,31.655,89.155,37.089,89.155,45.106 M82.917,45.106c0-4.84-2.044-8.77-6.559-8.77
			c-4.414,0-6.513,3.93-6.513,8.77c0,4.842,2.099,8.766,6.513,8.766C80.873,53.872,82.917,49.948,82.917,45.106"/>
		<path clip-path="url(#SVGID_4_)" d="M99.915,23.142v9.212h5.755v4.521h-5.755v13.664c0,2.205,0.968,3.012,2.421,3.012
			c1.075,0,1.883-0.432,2.688-0.861l1.673,4.789c-1.294,0.641-3.231,1.076-5.223,1.076c-4.734,0-7.64-2.586-7.64-7.264V36.874
			h-4.302v-4.521h4.302v-7.257v-1.955H99.915z"/>
		<path clip-path="url(#SVGID_4_)" d="M130.147,52.259c-1.99,3.818-5.542,6.293-10.87,6.293c-7.799,0-12.637-5.381-12.637-13.5
			c0-8.016,4.947-13.396,12.42-13.396c8.177,0,11.995,6.188,11.995,13.127v1.721h-18.182c0.163,3.818,1.832,7.482,6.354,7.482
			c3.121,0,4.624-1.619,5.642-3.822L130.147,52.259z M112.984,42.47h11.942c-0.162-4.035-2.528-6.349-5.918-6.349
			C115.407,36.121,113.312,38.761,112.984,42.47"/>
		<path clip-path="url(#SVGID_4_)" d="M137.192,19.552c2.202,0,3.764,1.457,3.764,3.713c0,2.047-1.447,3.707-3.764,3.707
			c-2.316,0-3.765-1.66-3.765-3.707C133.427,21.009,134.988,19.552,137.192,19.552 M140.257,57.851h-6.129V32.354h6.129V57.851z"/>
		<path clip-path="url(#SVGID_4_)" d="M145.209,32.354h5.863v3.872c1.502-2.629,4.035-4.57,8.011-4.57
			c4.95,0,9.036,2.855,9.036,8.605v17.59h-6.13V41.714c0-3.658-2.369-5.053-4.736-5.053c-3.065,0-5.915,2.631-5.915,7.691v13.498
			h-6.129V32.354z"/>
	</g>
	<g>
		<path d="M243.934,25.931v14.963h9.346v7.34h-9.346v22.188c0,3.586,1.568,4.896,3.931,4.896c1.745,0,3.06-0.703,4.363-1.398
			l2.716,7.777c-2.096,1.041-5.247,1.748-8.479,1.748c-7.689,0-12.404-4.201-12.404-11.797V48.233h-6.991v-7.34h6.991V29.103v-3.172
			H243.934z"/>
		<path d="M204.857,46.22c14.168,2.377,21.56,7.041,21.56,18.303c0,11.354-9.416,18.922-23.671,18.922
			c-15.225,0-23.936-8.449-24.376-18.568l10.296-1.584c0.527,6.16,4.488,11.791,14.08,11.791c7.831,0,12.936-3.432,12.936-9.943
			c0-5.631-3.608-8.359-14.256-9.943c-13.199-1.936-21.647-6.424-21.647-17.688c0-11.529,9.239-17.952,22.351-17.952
			c12.496,0,21.208,6.16,23.145,16.543l-10.473,2.378c-0.968-6.514-5.104-10.561-12.936-10.561c-7.744,0-11.439,3.52-11.439,8.711
			C190.426,42.437,194.298,44.46,204.857,46.22z"/>
		<path d="M294.64,82.3h-9.504v-6.248c-2.551,4.312-6.512,7.393-12.936,7.393c-7.92,0-14.519-4.664-14.519-13.992V40.587h9.945v26.4
			c0,5.984,3.695,8.273,7.566,8.273c4.84,0,9.504-4.312,9.504-12.584v-22.09h9.943V82.3z"/>
		<path d="M332.357,45.868V25.701h9.943V82.3h-9.504v-6.16c-2.287,3.783-6.512,7.305-13.727,7.305c-10.648,0-18.744-8.449-18.744-22
			c0-13.553,8.271-22,19.096-22C325.582,39.444,329.894,42.349,332.357,45.868z M332.357,59.245c0-8.801-6.16-11.881-10.912-11.881
			c-6.688,0-10.822,6.072-10.822,14.08c0,8.096,4.047,14.078,10.559,14.078c4.84,0,11.176-3.078,11.176-11.879V59.245z"/>
		<path d="M355.449,22.646c3.607,0,6.16,2.375,6.16,6.071c0,3.345-2.375,6.071-6.16,6.071c-3.783,0-6.16-2.727-6.16-6.071
			C349.289,25.021,351.841,22.646,355.449,22.646z M350.433,40.587h10.031V82.3h-10.031V40.587z"/>
		<path d="M407.632,61.444c0,13.111-8.008,22-20.943,22c-12.848,0-20.855-8.889-20.855-22s8.008-22,20.855-22
			C399.625,39.444,407.632,48.333,407.632,61.444z M397.423,61.444c0-7.922-3.344-14.344-10.734-14.344
			c-7.217,0-10.648,6.422-10.648,14.344c0,7.92,3.432,14.344,10.648,14.344C394.08,75.788,397.423,69.364,397.423,61.444z"/>
		<path d="M429.791,57.22c8.711,1.232,16.455,3.961,16.455,12.76c0,8.359-7.127,13.465-17.951,13.465
			c-10.295,0-17.336-4.4-18.303-12.584l9.68-1.408c0.439,4.664,3.695,6.688,8.711,6.688c4.664,0,7.832-1.762,7.832-5.455
			c0-3.256-2.289-4.578-9.24-5.633c-9.504-1.408-15.84-4.576-15.84-12.672c0-8.799,8.184-12.936,17.16-12.936
			c9.152,0,16.191,4.311,17.336,11.439l-9.68,2.025c-0.529-3.961-3.168-6.248-7.832-6.248c-3.873,0-6.951,1.76-6.951,5.016
			C421.167,55.372,424.687,56.429,429.791,57.22z"/>
	</g>
</g>
</svg>
