<?xml version="1.0" encoding="UTF-8" standalone="no"?>
<svg width="1166px" height="239px" viewBox="0 0 1166 239" version="1.1" xmlns="http://www.w3.org/2000/svg" xmlns:xlink="http://www.w3.org/1999/xlink">
    <!-- Generator: Sketch 3.6.1 (26313) - http://www.bohemiancoding.com/sketch -->
    <title>Group 14</title>
    <desc>Created with Sketch.</desc>
    <defs>
        <path id="path-1" d="M272.787748,238 L-9.32587341e-15,238 L-9.32587341e-15,0.2 L1162,0.2 L1162,238 L272.787748,238 L272.787748,101.9213 L-3.59747676e-05,101.9213 L-3.59747676e-05,238.0003 L272.787748,238.0003 L272.787748,238 Z"></path>
        <path id="path-3" d="M0.792425229,137 L273.491043,137 L273.491043,0.9213 L0.792425229,0.9213 L0.792425229,137 L0.792425229,137 Z"></path>
        <path id="path-5" d="M40,39.5519 L40,0.3249 L0.7733,0.3249 L0.7733,39.5519 L40,39.5519 L40,39.5519 Z"></path>
        <path id="path-7" d="M272.787748,136.078 L0,136.078 L0,0 L272.787748,0 L272.787748,136.078 L272.787748,136.078 Z"></path>
    </defs>
    <g id="Page-1" stroke="none" stroke-width="1" fill="none" fill-rule="evenodd">
        <g id="Group-14" transform="translate(0.000000, -1.000000)">
            <g id="Page-1" transform="translate(4.000000, 0.000000)">
                <g id="Group-3" transform="translate(0.000000, 0.800000)">
                    <mask id="mask-2" fill="white">
                        <use xlink:href="#path-1"></use>
                    </mask>
                    <g id="Clip-2"></g>
                    <path d="M94.3052,115.0563 C101.1662,115.0563 107.1582,115.3013 112.4612,116.2703 C120.0092,117.5983 126.4122,128.1213 126.4122,133.2583 C126.4122,135.8833 126.4122,138.8063 125.2632,143.0593 C123.3902,149.5883 110.5882,173.0473 105.2522,181.8813 C98.8332,171.4713 83.7332,142.0773 78.5152,130.6343 C76.2502,125.8243 75.0982,121.8343 75.0982,119.8813 C75.0982,116.2703 82.2552,115.0563 94.3052,115.0563 L94.3052,115.0563 Z M8.7172,115.0563 C15.1202,116.6473 18.8602,117.9773 24.1172,127.3973 C42.6322,161.3623 61.1782,198.8163 79.2022,235.6703 C81.4682,237.5763 84.1252,238.0003 87.9692,238.0003 C91.6782,238.0003 94.3052,237.5763 96.6682,235.6703 C105.2522,219.4543 127.9232,175.9353 137.7052,159.0323 C149.0802,179.9293 168.6622,218.0443 176.6082,235.6703 C178.8082,237.5763 181.5342,238.0003 185.2432,238.0003 C189.0162,238.0003 191.7262,237.5763 193.9092,235.6703 C209.7812,201.1193 227.0822,165.2523 244.4972,131.9003 C250.5412,119.8813 253.1662,116.6473 265.6272,114.3333 L270.9112,113.3973 C273.9162,110.3783 273.1432,103.2853 269.7952,101.9213 C261.4912,102.5803 251.6912,102.9233 240.6902,102.9233 C231.2692,102.9233 222.2732,102.5803 209.7812,101.9213 C206.0082,103.2853 206.0082,111.0653 208.3062,113.3973 L214.6732,114.6273 C221.1572,115.9573 224.1272,117.5983 224.1272,119.2563 C224.1272,121.5373 222.9802,126.1013 220.6332,131.9003 C214.6732,146.9953 208.7482,162.9893 199.5892,181.8813 C191.3182,166.1873 180.7772,145.0273 173.9502,129.3533 C171.7152,123.8393 170.9612,121.8343 170.9612,119.2563 C170.9612,117.5983 176.1792,115.9573 184.9142,114.3333 L190.5282,113.3973 C193.2532,112.0683 193.5472,102.3163 189.4122,101.9213 C165.2812,102.5803 146.4232,102.9233 122.6362,102.9233 L46.4242,102.9233 C30.5822,102.9233 18.5322,102.5803 3.0702,101.9213 C-0.7858,103.5643 -0.7858,110.7373 1.8252,113.3973 L8.7172,115.0563 Z" id="Fill-1" fill="#000000" mask="url(#mask-2)"></path>
                </g>
                <path d="M324.1451,114.1978 C336.9151,114.1978 344.1371,121.3218 344.1371,132.1058 C344.1371,135.3868 343.3801,138.6718 341.5101,139.6068 C337.2921,141.9058 331.2691,142.5108 325.9991,142.5108 L312.0461,142.5108 C299.9161,142.5108 294.6961,142.2828 294.6961,137.6548 C294.6961,127.1798 308.2881,114.1978 324.1451,114.1978 M323.7501,238.7998 C346.3691,238.7998 374.3711,229.3148 389.8031,201.6098 C389.8031,196.0568 384.0731,193.4168 379.9721,194.0268 C369.7771,209.1058 355.3991,210.9968 344.8611,210.9968 C309.7991,210.9968 291.6421,187.2378 291.6421,162.7668 C291.6421,157.5648 292.4311,156.9078 301.1301,156.9078 L373.4851,156.9078 C385.2711,156.9078 387.1111,152.3458 387.1111,146.1578 C387.1111,121.0098 365.9691,99.1598 326.7201,99.1598 C279.6261,99.1598 245.2881,131.1558 245.2881,172.2718 C245.2881,207.8248 272.8311,238.7998 323.7501,238.7998" id="Fill-4" fill="#000000"></path>
                <g id="Group-8" transform="translate(389.000000, 101.800000)">
                    <mask id="mask-4" fill="white">
                        <use xlink:href="#path-3"></use>
                    </mask>
                    <g id="Clip-7"></g>
                    <path d="M94.9926,14.0563 C101.8836,14.0563 107.8766,14.3013 113.1796,15.2703 C120.7296,16.5983 127.1306,27.1213 127.1306,32.2583 C127.1306,34.8833 127.1306,37.8063 126.0146,42.0593 C124.0766,48.5883 111.2756,72.0473 106.0216,80.8813 C99.5386,70.4713 84.5006,41.0773 79.2336,29.6343 C77.0016,24.8243 75.8186,20.8343 75.8186,18.8813 C75.8186,15.2703 82.9426,14.0563 94.9926,14.0563 L94.9926,14.0563 Z M9.4046,14.0563 C15.8746,15.6473 19.5836,16.9773 24.8656,26.3973 C43.3166,60.3623 61.9016,97.8163 79.9566,134.6703 C82.2526,136.5763 84.8796,137.0003 88.6566,137.0003 C92.3966,137.0003 94.9926,136.5763 97.3066,134.6703 C106.0216,118.4543 128.6076,74.9353 138.4566,58.0323 C149.8016,78.9293 169.3346,117.0443 177.2776,134.6703 C179.5606,136.5763 182.1696,137.0003 185.9246,137.0003 C189.7376,137.0003 192.3986,136.5763 194.6296,134.6703 C210.4996,100.1193 227.8526,64.2523 245.2356,30.9003 C251.2756,18.8813 253.8736,15.6473 266.3136,13.3333 L271.6446,12.3973 C274.6206,9.3783 273.8306,2.2853 270.4826,0.9213 C262.1446,1.5803 252.3916,1.9233 241.4086,1.9233 C231.9546,1.9233 222.9656,1.5803 210.4996,0.9213 C206.6776,2.2853 206.6776,10.0653 208.9916,12.3973 L215.3976,13.6273 C221.8286,14.9573 224.8146,16.5983 224.8146,18.2563 C224.8146,20.5373 223.6836,25.1013 221.4516,30.9003 C215.3976,45.9953 209.3526,61.9893 200.2766,80.8813 C192.0006,65.1873 181.4616,44.0273 174.6686,28.3533 C172.3856,22.8393 171.6306,20.8343 171.6306,18.2563 C171.6306,16.5983 176.8686,14.9573 185.5996,13.3333 L191.2146,12.3973 C193.8756,11.0683 194.2686,1.3163 190.0996,0.9213 C165.9846,1.5803 147.0606,1.9233 123.3226,1.9233 L47.1106,1.9233 C31.3366,1.9233 19.2196,1.5803 3.7576,0.9213 C0.0146,2.5643 0.0146,9.7373 2.6416,12.3973 L9.4046,14.0563 Z" id="Fill-6" fill="#000000" mask="url(#mask-4)"></path>
                </g>
                <path d="M721.4183,114.1978 C742.8523,114.1978 753.4273,141.5448 753.8353,173.2378 C754.1613,202.6068 746.9543,223.8038 725.4373,223.8038 C703.6523,223.8038 691.1503,198.6338 691.1503,164.4298 C691.1503,128.9208 704.7993,114.1978 721.4183,114.1978 M721.4183,238.7998 C767.7583,238.7998 808.1663,216.3128 808.1663,168.6148 C808.1663,122.6338 768.1143,99.1598 723.6293,99.1598 C679.0983,99.1598 636.4523,124.9148 636.8143,171.6008 C637.2583,216.5758 676.4373,238.7998 721.4183,238.7998" id="Fill-9" fill="#000000"></path>
                <path d="M872.4627,127.1802 C874.7827,127.1802 878.1247,127.5262 886.7627,133.6972 C891.6037,137.6542 896.1497,139.6072 901.4657,139.6072 C913.5177,139.6072 925.6477,133.4182 925.6477,118.3982 C925.6477,106.0722 915.0777,99.1592 904.8177,99.1592 C889.0247,99.1592 878.1247,109.9132 867.8707,115.4272 C864.8787,114.8202 864.1047,113.8362 864.1047,111.5372 C864.1047,108.6162 864.8787,104.0852 865.5657,97.5042 C864.1047,95.5662 861.7797,94.5332 858.8707,94.5332 C847.1337,101.1482 821.1177,109.9132 803.7027,114.1982 C801.0787,116.1012 801.0787,121.9932 803.7027,123.9612 L809.0857,126.9012 C816.2107,130.8252 816.2107,134.7152 816.2107,147.7952 L816.2107,197.0222 C816.2107,219.8402 814.6967,222.7802 802.2257,223.8032 L795.0497,224.4022 C792.0117,226.3602 792.0117,233.9082 795.4477,235.8662 C807.9187,235.1582 824.5177,234.8742 839.9787,234.8742 C857.6727,234.8742 872.8037,235.1582 890.9317,235.8662 C894.3257,233.9082 894.3257,226.3602 891.2727,224.4022 L879.2097,223.4882 C866.7547,222.4502 865.2257,219.8402 865.2257,197.0222 L865.2257,146.7982 C865.2257,134.4202 867.1417,127.1802 872.4627,127.1802" id="Fill-11" fill="#000000"></path>
                <path d="M1020.0976,222.7805 L1015.2056,223.8035 C1012.1526,226.7375 1012.8916,233.5465 1016.6826,235.1575 C1027.2526,234.5175 1040.7776,234.2025 1063.1366,234.2025 C1085.0196,234.2025 1098.9366,234.5175 1110.6066,235.1575 C1114.4036,233.9085 1115.1686,226.0655 1112.0996,223.8035 L1106.5046,222.7805 C1096.7106,221.1685 1089.5506,219.4845 1084.2606,215.3155 C1074.7756,207.8245 1041.5676,163.4225 1034.8836,152.9875 C1032.9306,150.3885 1032.1296,148.4515 1032.1296,147.4385 C1032.1296,146.4825 1032.5276,145.1865 1034.3766,143.1875 C1039.6776,138.6725 1045.4426,133.6975 1059.7266,124.2435 C1069.8676,117.4475 1077.8646,114.1975 1085.0196,112.8685 L1097.0356,110.5685 C1099.7376,108.0245 1099.3806,100.7375 1095.5226,99.1595 C1073.3136,102.1175 1041.9816,103.7235 1024.2156,103.7235 L1015.2056,103.7235 C1011.4496,105.0885 1011.0206,112.2095 1014.4156,115.1335 L1023.8896,116.4975 C1027.2526,116.7575 1031.0136,118.0545 1031.0136,119.7125 C1031.0136,121.6815 1029.1906,125.2425 1021.9686,132.7005 L1006.1756,148.7825 C998.5966,156.2525 990.6826,157.8955 984.2666,157.8955 C980.1596,157.8955 978.9456,156.9075 978.9456,153.3175 L978.9456,50.9195 C978.9456,30.3355 979.4206,16.6115 980.1596,3.2655 C978.6816,1.5915 975.9596,1.0005 973.7066,1.0005 C954.4216,8.1085 931.4596,16.0195 916.0126,19.2055 C913.3366,21.2095 913.3366,27.1015 916.0126,28.9555 L922.4126,32.3035 C929.9296,36.2275 929.9296,39.8075 929.9296,52.9205 L929.9296,196.3665 C929.9296,219.1845 928.4216,221.8095 914.7786,223.1625 L907.6226,223.8035 C904.6366,225.7205 904.6366,233.2515 907.9996,235.1575 C921.2146,234.5175 936.6916,234.2025 954.0446,234.2025 C971.4286,234.2025 987.2476,234.5175 999.3816,235.1575 C1002.7196,233.2515 1002.7196,225.7205 999.7286,223.8035 L993.7356,223.1625 C980.4686,221.8095 978.9456,219.1845 978.9456,196.3665 L978.9456,177.4795 C978.9456,171.2385 980.8516,169.6485 983.4606,169.6485 C987.2476,169.6485 990.2846,170.9755 992.9656,174.4575 L1019.7056,209.7625 C1022.7426,213.6365 1026.1056,218.8445 1026.1056,220.2545 C1026.1056,221.4685 1023.8896,222.0775 1020.0976,222.7805" id="Fill-13" fill="#000000"></path>
                <g id="Group-17" transform="translate(1122.000000, 198.800000)">
                    <mask id="mask-6" fill="white">
                        <use xlink:href="#path-5"></use>
                    </mask>
                    <g id="Clip-16"></g>
                    <path d="M20.3903,4.1609 C11.6903,4.1609 4.6093,11.2349 4.6093,19.9349 C4.6093,28.6349 11.6903,35.7159 20.3903,35.7159 C29.0903,35.7159 36.1643,28.6349 36.1643,19.9349 C36.1643,11.2349 29.0903,4.1609 20.3903,4.1609 M20.3903,39.5519 C9.5713,39.5519 0.7733,30.7539 0.7733,19.9349 C0.7733,9.1229 9.5713,0.3249 20.3903,0.3249 C31.2023,0.3249 40.0003,9.1229 40.0003,19.9349 C40.0003,30.7539 31.2023,39.5519 20.3903,39.5519" id="Fill-15" fill="#000000" mask="url(#mask-6)"></path>
                </g>
                <path d="M1146.2239,215.0657 C1146.2239,213.3907 1144.9329,212.3717 1143.2239,212.3717 L1138.7629,212.3717 L1138.7629,217.7647 L1143.2239,217.7647 C1144.9329,217.7647 1146.2239,216.7457 1146.2239,215.0657 L1146.2239,215.0657 Z M1145.8019,228.6097 L1141.8789,221.5077 L1138.7629,221.5077 L1138.7629,228.6097 L1134.5049,228.6097 L1134.5049,208.6237 L1143.8549,208.6237 C1148.0209,208.6237 1150.5649,211.3517 1150.5649,215.0657 C1150.5649,218.6047 1148.3499,220.4887 1146.1909,220.9977 L1150.6859,228.6097 L1145.8019,228.6097 Z" id="Fill-18" fill="#000000"></path>
            </g>
            <g id="Page-1" transform="translate(0.000000, 103.000000)">
                <mask id="mask-8" fill="white">
                    <use xlink:href="#path-7"></use>
                </mask>
                <g id="Clip-2"></g>
                <path d="M94.3052,13.1343 C101.1662,13.1343 107.1582,13.3793 112.4612,14.3483 C120.0092,15.6763 126.4122,26.1993 126.4122,31.3363 C126.4122,33.9613 126.4122,36.8843 125.2632,41.1373 C123.3902,47.6663 110.5882,71.1253 105.2522,79.9593 C98.8332,69.5493 83.7332,40.1553 78.5152,28.7123 C76.2502,23.9023 75.0982,19.9123 75.0982,17.9593 C75.0982,14.3483 82.2552,13.1343 94.3052,13.1343 L94.3052,13.1343 Z M8.7172,13.1343 C15.1202,14.7253 18.8602,16.0553 24.1172,25.4753 C42.6322,59.4403 61.1782,96.8943 79.2022,133.7483 C81.4682,135.6543 84.1252,136.0783 87.9692,136.0783 C91.6782,136.0783 94.3052,135.6543 96.6682,133.7483 C105.2522,117.5323 127.9232,74.0133 137.7052,57.1103 C149.0802,78.0073 168.6622,116.1223 176.6082,133.7483 C178.8082,135.6543 181.5342,136.0783 185.2432,136.0783 C189.0162,136.0783 191.7262,135.6543 193.9092,133.7483 C209.7812,99.1973 227.0822,63.3303 244.4972,29.9783 C250.5412,17.9593 253.1662,14.7253 265.6272,12.4113 L270.9112,11.4753 C273.9162,8.4563 273.1432,1.3633 269.7952,-0.0007 C261.4912,0.6583 251.6912,1.0013 240.6902,1.0013 C231.2692,1.0013 222.2732,0.6583 209.7812,-0.0007 C206.0082,1.3633 206.0082,9.1433 208.3062,11.4753 L214.6732,12.7053 C221.1572,14.0353 224.1272,15.6763 224.1272,17.3343 C224.1272,19.6153 222.9802,24.1793 220.6332,29.9783 C214.6732,45.0733 208.7482,61.0673 199.5892,79.9593 C191.3182,64.2653 180.7772,43.1053 173.9502,27.4313 C171.7152,21.9173 170.9612,19.9123 170.9612,17.3343 C170.9612,15.6763 176.1792,14.0353 184.9142,12.4113 L190.5282,11.4753 C193.2532,10.1463 193.5472,0.3943 189.4122,-0.0007 C165.2812,0.6583 146.4232,1.0013 122.6362,1.0013 L46.4242,1.0013 C30.5822,1.0013 18.5322,0.6583 3.0702,-0.0007 C-0.7858,1.6423 -0.7858,8.8153 1.8252,11.4753 L8.7172,13.1343 Z" id="Fill-1" fill="#000000" mask="url(#mask-8)"></path>
            </g>
        </g>
    </g>
</svg>