<?xml version="1.0" encoding="UTF-8" standalone="no"?>
<svg width="118px" height="72px" viewBox="0 0 118 72" version="1.1" xmlns="http://www.w3.org/2000/svg" xmlns:xlink="http://www.w3.org/1999/xlink">
    <!-- Generator: Sketch 39.1 (31720) - http://www.bohemiancoding.com/sketch -->
    <title>Design-Club-Logo</title>
    <desc>Created with Sketch.</desc>
    <defs></defs>
    <g id="Symbols" stroke="none" stroke-width="1" fill="none" fill-rule="evenodd">
        <g id="Design-Club-Logo" fill="#0043FF">
            <g>
                <path d="M0,0 L965,0 L965,588 L0,588 L0,0 Z M153.263301,258.470464 C180.678022,258.470464 199.846039,235.959189 202.966414,209.213119 C205.195253,190.49087 205.195253,170.431317 202.966414,151.709068 C199.846039,124.962999 180.678022,102.451723 153.263301,102.451723 L106.457678,102.451723 C104.005955,102.451723 102,104.457678 102,106.909401 L102,254.012786 C102,256.464509 104.005955,258.470464 106.457678,258.470464 L153.263301,258.470464 Z M438.629014,212.11061 C438.629014,222.586154 429.936542,230.387091 416.563507,230.387091 C402.744704,230.387091 394.943767,222.36327 394.943767,212.11061 L394.943767,205.424092 C394.943767,202.972369 392.937811,200.966414 390.486088,200.966414 L367.974813,200.966414 C365.52309,200.966414 363.517135,202.972369 363.517135,205.424092 L363.517135,212.11061 C363.517135,239.302447 385.805526,260.922187 416.563507,260.922187 C448.213023,260.922187 470.947182,241.085519 470.947182,212.11061 C470.947182,181.129745 447.990139,168.202478 417.009274,161.961729 C405.419311,159.732889 397.172606,154.383675 397.172606,145.914087 C397.172606,136.99873 404.082007,130.312213 416.563507,130.312213 C429.26789,130.312213 436.400175,138.11315 436.400175,147.028506 L436.400175,150.371765 C436.400175,152.823488 438.40613,154.829443 440.857853,154.829443 L463.369129,154.829443 C465.820852,154.829443 467.826807,152.823488 467.826807,150.371765 L467.826807,147.028506 C467.826807,120.728204 446.429951,100 416.563507,100 C387.14283,100 365.52309,120.728204 365.52309,147.028506 C365.52309,175.780531 387.588597,188.039147 415.449087,194.279896 C432.165381,198.068923 438.629014,202.526601 438.629014,212.11061 Z M703.712291,151.040417 C703.935175,153.49214 705.718247,155.498095 708.16997,155.498095 L730.458361,155.498095 C732.910084,155.498095 734.91604,153.49214 734.91604,151.040417 C734.91604,121.173972 712.627648,100 681.869668,100 C651.111687,100 631.943671,122.511276 628.823296,149.257345 C626.594457,167.979594 626.594457,192.942593 628.823296,211.664842 C631.943671,238.410912 651.111687,260.922187 681.869668,260.922187 C712.404764,260.922187 734.91604,238.85668 734.91604,212.11061 L734.91604,174.666112 C734.91604,172.214389 732.910084,170.208434 730.458361,170.208434 L686.995998,170.208434 C684.544275,170.208434 682.538319,172.214389 682.538319,174.666112 L682.538319,195.840084 C682.538319,198.291807 684.544275,200.297762 686.995998,200.297762 L702.152104,200.297762 C703.489408,200.297762 704.380943,201.189298 704.380943,202.526601 L704.380943,212.11061 C704.380943,222.140386 695.242703,229.495555 681.869668,229.495555 C668.273749,229.495555 661.364347,221.471734 660.249928,211.664842 C658.021089,192.942593 658.021089,167.979594 660.249928,149.257345 C661.364347,139.450453 668.273749,131.426632 681.869668,131.426632 C694.574051,131.426632 702.820756,139.450453 703.712291,151.040417 Z M863,106.909401 C863,104.457678 860.994045,102.451723 858.542322,102.451723 L836.25393,102.451723 C833.802207,102.451723 831.796252,104.457678 831.796252,106.909401 L831.796252,190.713754 C831.796252,192.051057 830.236064,192.496825 829.790297,191.159522 L799.2552,106.463634 C798.586548,104.457678 797.026361,102.451723 793.683102,102.451723 L767.159916,102.451723 C764.708193,102.451723 762.702238,104.457678 762.702238,106.909401 L762.702238,254.012786 C762.702238,256.464509 764.708193,258.470464 767.159916,258.470464 L789.448308,258.470464 C791.900031,258.470464 793.905986,256.464509 793.905986,254.012786 L793.905986,176.894951 C793.905986,175.557647 795.466173,175.11188 795.911941,176.449183 L826.224154,254.681438 C826.892806,256.464509 828.452993,258.470464 832.24202,258.470464 L858.542322,258.470464 C860.994045,258.470464 863,256.464509 863,254.012786 L863,106.909401 Z M286.250707,456.157165 C272.654788,456.157165 265.745387,448.133344 264.630967,438.326451 C262.402128,419.604202 262.402128,394.641204 264.630967,375.918955 C265.745387,366.112062 272.654788,358.088242 286.250707,358.088242 C298.95509,358.088242 307.201795,366.112062 308.093331,377.702026 C308.316215,380.153749 310.099286,382.159704 312.551009,382.159704 L334.839401,382.159704 C337.291124,382.159704 339.297079,380.153749 339.297079,377.702026 C339.297079,347.835581 317.008687,326.661609 286.250707,326.661609 C255.492727,326.661609 236.32471,349.172885 233.204335,375.918955 C230.975496,394.641204 230.975496,419.604202 233.204335,438.326451 C236.32471,465.072521 255.492727,487.583797 286.250707,487.583797 C317.008687,487.583797 339.297079,466.409825 339.297079,436.54338 C339.297079,434.091657 337.291124,432.085702 334.839401,432.085702 L312.551009,432.085702 C310.099286,432.085702 308.316215,434.091657 308.093331,436.54338 C307.201795,448.133344 298.95509,456.157165 286.250707,456.157165 Z M408.316802,333.571011 C408.316802,331.119288 406.310846,329.113332 403.859123,329.113332 L381.570732,329.113332 C379.119009,329.113332 377.113053,331.119288 377.113053,333.571011 L377.113053,480.674395 C377.113053,483.126118 379.119009,485.132074 381.570732,485.132074 L466.26662,485.132074 C468.718343,485.132074 470.724298,483.126118 470.724298,480.674395 L470.724298,458.386004 C470.724298,455.934281 468.718343,453.928325 466.26662,453.928325 L410.545641,453.928325 C409.208337,453.928325 408.316802,453.03679 408.316802,451.699486 L408.316802,333.571011 Z M719.091282,402.665025 C725.554915,396.201391 730.458361,384.388544 730.458361,374.581651 C730.458361,349.395769 711.513229,329.113332 686.55023,329.113332 L633.949626,329.113332 C631.497903,329.113332 629.491947,331.119288 629.491947,333.571011 L629.491947,480.674395 C629.491947,483.126118 631.497903,485.132074 633.949626,485.132074 L686.55023,485.132074 C713.964952,485.132074 732.241433,466.186941 732.241433,436.989148 C732.241433,425.622068 726.446451,412.917685 719.091282,406.676935 C717.753978,405.562516 717.753978,404.002328 719.091282,402.665025 Z M135.432587,227.266716 C134.095284,227.266716 133.203748,226.37518 133.203748,225.037877 L133.203748,135.88431 C133.203748,134.547007 134.095284,133.655471 135.432587,133.655471 L153.263301,133.655471 C163.515961,133.655471 170.425362,141.902176 171.539782,151.709068 C173.768621,170.431317 173.768621,190.49087 171.539782,209.213119 C170.425362,219.020011 163.515961,227.266716 153.263301,227.266716 L135.432587,227.266716 Z M685.43581,360.317081 C693.236747,360.317081 700.146149,366.780714 700.146149,374.581651 C700.146149,382.382588 693.236747,389.069106 685.43581,389.069106 L662.255883,389.069106 C660.91858,389.069106 660.027044,388.17757 660.027044,386.840267 L660.027044,362.54592 C660.027044,361.208616 660.91858,360.317081 662.255883,360.317081 L685.43581,360.317081 Z M662.255883,453.928325 C660.91858,453.928325 660.027044,453.03679 660.027044,451.699486 L660.027044,422.501693 C660.027044,421.16439 660.91858,420.272854 662.255883,420.272854 L685.43581,420.272854 C694.796935,420.272854 701.037684,428.296675 701.037684,436.989148 C701.037684,445.904504 695.019819,453.928325 685.43581,453.928325 L662.255883,453.928325 Z"></path>
            </g>
        </g>
    </g>
</svg>